<mxfile host="app.diagrams.net" modified="2024-06-29T07:03:10.658Z" agent="Mozilla/5.0 (Windows NT 10.0; Win64; x64) AppleWebKit/537.36 (KHTML, like Gecko) Chrome/126.0.0.0 Safari/537.36" etag="Ary62YpYtu4DCY_JXhsu" version="24.6.4" type="github">
  <diagram name="Page-1" id="e7e014a7-5840-1c2e-5031-d8a46d1fe8dd">
    <mxGraphModel dx="1909" dy="1124" grid="0" gridSize="10" guides="1" tooltips="1" connect="1" arrows="1" fold="1" page="1" pageScale="1" pageWidth="1654" pageHeight="1169" background="none" math="0" shadow="0">
      <root>
        <mxCell id="0" />
        <mxCell id="1" parent="0" />
        <mxCell id="ch4QMYqMHI65cW54n4_m-41" value="Update Case" style="text;html=1;align=center;verticalAlign=middle;resizable=0;points=[];autosize=1;strokeColor=none;fillColor=none;" vertex="1" parent="1">
          <mxGeometry x="180" y="6" width="90" height="30" as="geometry" />
        </mxCell>
        <mxCell id="ch4QMYqMHI65cW54n4_m-42" value="" style="group" vertex="1" connectable="0" parent="1">
          <mxGeometry x="164.5" y="128" width="840" height="1790" as="geometry" />
        </mxCell>
        <mxCell id="2" value="Amin" style="swimlane;whiteSpace=wrap" parent="ch4QMYqMHI65cW54n4_m-42" vertex="1">
          <mxGeometry y="-84" width="280" height="754" as="geometry" />
        </mxCell>
        <mxCell id="5" value="" style="ellipse;shape=startState;fillColor=#000000;strokeColor=#ff0000;" parent="2" vertex="1">
          <mxGeometry x="100" y="40" width="30" height="30" as="geometry" />
        </mxCell>
        <mxCell id="6" value="" style="edgeStyle=elbowEdgeStyle;elbow=horizontal;verticalAlign=bottom;endArrow=open;endSize=8;strokeColor=#000000;endFill=1;rounded=0" parent="2" source="5" target="7" edge="1">
          <mxGeometry x="100" y="40" as="geometry">
            <mxPoint x="115" y="110" as="targetPoint" />
          </mxGeometry>
        </mxCell>
        <mxCell id="7" value="Login aplikasi&#xa;Healthducate" style="" parent="2" vertex="1">
          <mxGeometry x="60" y="105" width="110" height="50" as="geometry" />
        </mxCell>
        <mxCell id="8" value="Memilih Opsi&#xa;Update" style="" parent="2" vertex="1">
          <mxGeometry x="60" y="235" width="110" height="50" as="geometry" />
        </mxCell>
        <mxCell id="ch4QMYqMHI65cW54n4_m-192" value="Admin melakukan&#xa;update" style="" vertex="1" parent="2">
          <mxGeometry x="60" y="510" width="110" height="50" as="geometry" />
        </mxCell>
        <mxCell id="3" value="System" style="swimlane;whiteSpace=wrap" parent="ch4QMYqMHI65cW54n4_m-42" vertex="1">
          <mxGeometry x="280.5" y="-84" width="399.5" height="754" as="geometry" />
        </mxCell>
        <mxCell id="10" value="MenampilkanÂ &#xa;Homepage Admin" style="" parent="3" vertex="1">
          <mxGeometry x="157.25" y="235" width="110" height="50" as="geometry" />
        </mxCell>
        <mxCell id="ch4QMYqMHI65cW54n4_m-163" style="edgeStyle=orthogonalEdgeStyle;rounded=0;orthogonalLoop=1;jettySize=auto;html=1;entryX=0.5;entryY=0;entryDx=0;entryDy=0;exitX=1;exitY=0.5;exitDx=0;exitDy=0;" edge="1" parent="3" source="ch4QMYqMHI65cW54n4_m-156" target="10">
          <mxGeometry relative="1" as="geometry">
            <mxPoint x="395" y="130" as="targetPoint" />
          </mxGeometry>
        </mxCell>
        <mxCell id="ch4QMYqMHI65cW54n4_m-156" value="&lt;font style=&quot;font-size: 11px;&quot;&gt;Validasi Username &amp;amp; Password&lt;/font&gt;" style="rhombus;whiteSpace=wrap;html=1;" vertex="1" parent="3">
          <mxGeometry x="135" y="90" width="154.5" height="80" as="geometry" />
        </mxCell>
        <mxCell id="ch4QMYqMHI65cW54n4_m-174" style="edgeStyle=orthogonalEdgeStyle;rounded=0;orthogonalLoop=1;jettySize=auto;html=1;entryX=0.5;entryY=0;entryDx=0;entryDy=0;" edge="1" parent="3" source="ch4QMYqMHI65cW54n4_m-171" target="ch4QMYqMHI65cW54n4_m-173">
          <mxGeometry relative="1" as="geometry" />
        </mxCell>
        <mxCell id="ch4QMYqMHI65cW54n4_m-171" value="System menampilkan Opsi kategori yang ingin di update" style="rounded=0;whiteSpace=wrap;html=1;" vertex="1" parent="3">
          <mxGeometry x="122.25" y="322" width="180" height="38" as="geometry" />
        </mxCell>
        <mxCell id="ch4QMYqMHI65cW54n4_m-180" style="edgeStyle=orthogonalEdgeStyle;rounded=0;orthogonalLoop=1;jettySize=auto;html=1;exitX=0.5;exitY=1;exitDx=0;exitDy=0;entryX=0.5;entryY=0;entryDx=0;entryDy=0;" edge="1" parent="3" source="ch4QMYqMHI65cW54n4_m-173" target="ch4QMYqMHI65cW54n4_m-176">
          <mxGeometry relative="1" as="geometry" />
        </mxCell>
        <mxCell id="ch4QMYqMHI65cW54n4_m-181" style="edgeStyle=orthogonalEdgeStyle;rounded=0;orthogonalLoop=1;jettySize=auto;html=1;exitX=0.5;exitY=1;exitDx=0;exitDy=0;entryX=0.5;entryY=0;entryDx=0;entryDy=0;" edge="1" parent="3" source="ch4QMYqMHI65cW54n4_m-173" target="ch4QMYqMHI65cW54n4_m-177">
          <mxGeometry relative="1" as="geometry" />
        </mxCell>
        <mxCell id="ch4QMYqMHI65cW54n4_m-182" style="edgeStyle=orthogonalEdgeStyle;rounded=0;orthogonalLoop=1;jettySize=auto;html=1;exitX=0.5;exitY=1;exitDx=0;exitDy=0;entryX=0.5;entryY=0;entryDx=0;entryDy=0;" edge="1" parent="3" source="ch4QMYqMHI65cW54n4_m-173" target="ch4QMYqMHI65cW54n4_m-178">
          <mxGeometry relative="1" as="geometry" />
        </mxCell>
        <mxCell id="ch4QMYqMHI65cW54n4_m-173" value="" style="rounded=0;whiteSpace=wrap;html=1;fillColor=#000000;" vertex="1" parent="3">
          <mxGeometry x="152.25" y="382" width="120" height="18" as="geometry" />
        </mxCell>
        <mxCell id="ch4QMYqMHI65cW54n4_m-186" style="edgeStyle=orthogonalEdgeStyle;rounded=0;orthogonalLoop=1;jettySize=auto;html=1;exitX=0.5;exitY=1;exitDx=0;exitDy=0;entryX=0.5;entryY=0;entryDx=0;entryDy=0;" edge="1" parent="3" source="ch4QMYqMHI65cW54n4_m-176" target="ch4QMYqMHI65cW54n4_m-185">
          <mxGeometry relative="1" as="geometry" />
        </mxCell>
        <mxCell id="ch4QMYqMHI65cW54n4_m-176" value="Update Video" style="rounded=0;whiteSpace=wrap;html=1;" vertex="1" parent="3">
          <mxGeometry x="30" y="432" width="85" height="28" as="geometry" />
        </mxCell>
        <mxCell id="ch4QMYqMHI65cW54n4_m-187" style="edgeStyle=orthogonalEdgeStyle;rounded=0;orthogonalLoop=1;jettySize=auto;html=1;exitX=0.5;exitY=1;exitDx=0;exitDy=0;entryX=0.5;entryY=0;entryDx=0;entryDy=0;" edge="1" parent="3" source="ch4QMYqMHI65cW54n4_m-177" target="ch4QMYqMHI65cW54n4_m-185">
          <mxGeometry relative="1" as="geometry">
            <mxPoint x="215" y="492" as="targetPoint" />
          </mxGeometry>
        </mxCell>
        <mxCell id="ch4QMYqMHI65cW54n4_m-177" value="Update Artikel" style="rounded=0;whiteSpace=wrap;html=1;" vertex="1" parent="3">
          <mxGeometry x="122.25" y="432" width="85" height="28" as="geometry" />
        </mxCell>
        <mxCell id="ch4QMYqMHI65cW54n4_m-188" style="edgeStyle=orthogonalEdgeStyle;rounded=0;orthogonalLoop=1;jettySize=auto;html=1;exitX=0.5;exitY=1;exitDx=0;exitDy=0;entryX=0.5;entryY=0;entryDx=0;entryDy=0;" edge="1" parent="3" source="ch4QMYqMHI65cW54n4_m-178" target="ch4QMYqMHI65cW54n4_m-185">
          <mxGeometry relative="1" as="geometry" />
        </mxCell>
        <mxCell id="ch4QMYqMHI65cW54n4_m-178" value="Update restoran" style="rounded=0;whiteSpace=wrap;html=1;" vertex="1" parent="3">
          <mxGeometry x="215" y="432" width="74.5" height="28" as="geometry" />
        </mxCell>
        <mxCell id="ch4QMYqMHI65cW54n4_m-189" style="edgeStyle=orthogonalEdgeStyle;rounded=0;orthogonalLoop=1;jettySize=auto;html=1;exitX=0.5;exitY=1;exitDx=0;exitDy=0;entryX=0.5;entryY=0;entryDx=0;entryDy=0;" edge="1" parent="3" source="ch4QMYqMHI65cW54n4_m-179" target="ch4QMYqMHI65cW54n4_m-185">
          <mxGeometry relative="1" as="geometry">
            <mxPoint x="215" y="492" as="targetPoint" />
          </mxGeometry>
        </mxCell>
        <mxCell id="ch4QMYqMHI65cW54n4_m-179" value="Update makanan" style="rounded=0;whiteSpace=wrap;html=1;" vertex="1" parent="3">
          <mxGeometry x="295" y="432" width="74.5" height="28" as="geometry" />
        </mxCell>
        <mxCell id="ch4QMYqMHI65cW54n4_m-183" style="edgeStyle=orthogonalEdgeStyle;rounded=0;orthogonalLoop=1;jettySize=auto;html=1;exitX=0.5;exitY=1;exitDx=0;exitDy=0;entryX=0.631;entryY=0.012;entryDx=0;entryDy=0;entryPerimeter=0;" edge="1" parent="3" source="ch4QMYqMHI65cW54n4_m-173" target="ch4QMYqMHI65cW54n4_m-179">
          <mxGeometry relative="1" as="geometry" />
        </mxCell>
        <mxCell id="ch4QMYqMHI65cW54n4_m-185" value="" style="rounded=0;whiteSpace=wrap;html=1;fillColor=#000000;" vertex="1" parent="3">
          <mxGeometry x="152.25" y="492" width="120" height="18" as="geometry" />
        </mxCell>
        <mxCell id="ch4QMYqMHI65cW54n4_m-200" style="edgeStyle=orthogonalEdgeStyle;rounded=0;orthogonalLoop=1;jettySize=auto;html=1;exitX=0.5;exitY=1;exitDx=0;exitDy=0;entryX=0.5;entryY=0;entryDx=0;entryDy=0;" edge="1" parent="3" source="ch4QMYqMHI65cW54n4_m-197">
          <mxGeometry relative="1" as="geometry">
            <mxPoint x="217.25" y="706" as="targetPoint" />
          </mxGeometry>
        </mxCell>
        <mxCell id="ch4QMYqMHI65cW54n4_m-197" value="Save data kedalam database" style="rounded=0;whiteSpace=wrap;html=1;" vertex="1" parent="3">
          <mxGeometry x="157.25" y="596" width="120" height="60" as="geometry" />
        </mxCell>
        <mxCell id="ch4QMYqMHI65cW54n4_m-201" value="" style="ellipse;shape=endState;fillColor=#000000;strokeColor=#ff0000" vertex="1" parent="3">
          <mxGeometry x="202.25" y="706" width="30" height="30" as="geometry" />
        </mxCell>
        <mxCell id="ch4QMYqMHI65cW54n4_m-239" value="Not Valid" style="text;html=1;align=center;verticalAlign=middle;resizable=0;points=[];autosize=1;strokeColor=none;fillColor=none;" vertex="1" parent="3">
          <mxGeometry x="30" y="156" width="70" height="30" as="geometry" />
        </mxCell>
        <mxCell id="ch4QMYqMHI65cW54n4_m-240" value="Valid" style="text;html=1;align=center;verticalAlign=middle;resizable=0;points=[];autosize=1;strokeColor=none;fillColor=none;" vertex="1" parent="3">
          <mxGeometry x="307.25" y="156" width="50" height="30" as="geometry" />
        </mxCell>
        <mxCell id="ch4QMYqMHI65cW54n4_m-159" style="edgeStyle=orthogonalEdgeStyle;rounded=0;orthogonalLoop=1;jettySize=auto;html=1;exitX=1;exitY=0.5;exitDx=0;exitDy=0;entryX=0;entryY=0.5;entryDx=0;entryDy=0;" edge="1" parent="ch4QMYqMHI65cW54n4_m-42" source="7" target="ch4QMYqMHI65cW54n4_m-156">
          <mxGeometry relative="1" as="geometry" />
        </mxCell>
        <mxCell id="ch4QMYqMHI65cW54n4_m-164" style="edgeStyle=orthogonalEdgeStyle;rounded=0;orthogonalLoop=1;jettySize=auto;html=1;entryX=0.5;entryY=1;entryDx=0;entryDy=0;exitX=0.5;exitY=1;exitDx=0;exitDy=0;" edge="1" parent="ch4QMYqMHI65cW54n4_m-42" source="ch4QMYqMHI65cW54n4_m-156" target="7">
          <mxGeometry relative="1" as="geometry" />
        </mxCell>
        <mxCell id="ch4QMYqMHI65cW54n4_m-169" style="edgeStyle=orthogonalEdgeStyle;rounded=0;orthogonalLoop=1;jettySize=auto;html=1;entryX=1;entryY=0.5;entryDx=0;entryDy=0;" edge="1" parent="ch4QMYqMHI65cW54n4_m-42" source="10" target="8">
          <mxGeometry relative="1" as="geometry" />
        </mxCell>
        <mxCell id="ch4QMYqMHI65cW54n4_m-172" style="edgeStyle=orthogonalEdgeStyle;rounded=0;orthogonalLoop=1;jettySize=auto;html=1;entryX=0;entryY=0.5;entryDx=0;entryDy=0;exitX=0.5;exitY=1;exitDx=0;exitDy=0;" edge="1" parent="ch4QMYqMHI65cW54n4_m-42" source="8" target="ch4QMYqMHI65cW54n4_m-171">
          <mxGeometry relative="1" as="geometry" />
        </mxCell>
        <mxCell id="ch4QMYqMHI65cW54n4_m-193" style="edgeStyle=orthogonalEdgeStyle;rounded=0;orthogonalLoop=1;jettySize=auto;html=1;exitX=0.5;exitY=1;exitDx=0;exitDy=0;entryX=1;entryY=0.5;entryDx=0;entryDy=0;" edge="1" parent="ch4QMYqMHI65cW54n4_m-42" source="ch4QMYqMHI65cW54n4_m-185" target="ch4QMYqMHI65cW54n4_m-192">
          <mxGeometry relative="1" as="geometry" />
        </mxCell>
        <mxCell id="ch4QMYqMHI65cW54n4_m-196" style="edgeStyle=orthogonalEdgeStyle;rounded=0;orthogonalLoop=1;jettySize=auto;html=1;exitX=0.5;exitY=1;exitDx=0;exitDy=0;entryX=0;entryY=0.5;entryDx=0;entryDy=0;" edge="1" parent="ch4QMYqMHI65cW54n4_m-42" source="ch4QMYqMHI65cW54n4_m-192" target="ch4QMYqMHI65cW54n4_m-197">
          <mxGeometry relative="1" as="geometry">
            <mxPoint x="115" y="522" as="targetPoint" />
          </mxGeometry>
        </mxCell>
        <mxCell id="ch4QMYqMHI65cW54n4_m-202" value="View Artikel" style="text;html=1;align=center;verticalAlign=middle;resizable=0;points=[];autosize=1;strokeColor=none;fillColor=none;" vertex="1" parent="ch4QMYqMHI65cW54n4_m-42">
          <mxGeometry y="1077" width="90" height="30" as="geometry" />
        </mxCell>
        <mxCell id="ch4QMYqMHI65cW54n4_m-203" value="User" style="swimlane;whiteSpace=wrap" vertex="1" parent="ch4QMYqMHI65cW54n4_m-42">
          <mxGeometry x="4.5" y="1107" width="280" height="458" as="geometry" />
        </mxCell>
        <mxCell id="ch4QMYqMHI65cW54n4_m-204" value="" style="ellipse;shape=startState;fillColor=#000000;strokeColor=#ff0000;" vertex="1" parent="ch4QMYqMHI65cW54n4_m-203">
          <mxGeometry x="100" y="40" width="30" height="30" as="geometry" />
        </mxCell>
        <mxCell id="ch4QMYqMHI65cW54n4_m-205" value="" style="edgeStyle=elbowEdgeStyle;elbow=horizontal;verticalAlign=bottom;endArrow=open;endSize=8;strokeColor=#000000;endFill=1;rounded=0" edge="1" parent="ch4QMYqMHI65cW54n4_m-203" source="ch4QMYqMHI65cW54n4_m-204" target="ch4QMYqMHI65cW54n4_m-206">
          <mxGeometry x="100" y="40" as="geometry">
            <mxPoint x="115" y="110" as="targetPoint" />
          </mxGeometry>
        </mxCell>
        <mxCell id="ch4QMYqMHI65cW54n4_m-206" value="Login aplikasi&#xa;Healthducate" style="" vertex="1" parent="ch4QMYqMHI65cW54n4_m-203">
          <mxGeometry x="60" y="105" width="110" height="50" as="geometry" />
        </mxCell>
        <mxCell id="ch4QMYqMHI65cW54n4_m-244" style="edgeStyle=orthogonalEdgeStyle;rounded=0;orthogonalLoop=1;jettySize=auto;html=1;" edge="1" parent="ch4QMYqMHI65cW54n4_m-203" source="ch4QMYqMHI65cW54n4_m-207">
          <mxGeometry relative="1" as="geometry">
            <mxPoint x="115" y="320" as="targetPoint" />
          </mxGeometry>
        </mxCell>
        <mxCell id="ch4QMYqMHI65cW54n4_m-207" value="User mencari&#xa;Artikel" style="" vertex="1" parent="ch4QMYqMHI65cW54n4_m-203">
          <mxGeometry x="60" y="235" width="110" height="50" as="geometry" />
        </mxCell>
        <mxCell id="ch4QMYqMHI65cW54n4_m-243" value="User klik artikelÂ &#xa;yang ingin dibaca" style="" vertex="1" parent="ch4QMYqMHI65cW54n4_m-203">
          <mxGeometry x="60" y="320" width="110" height="50" as="geometry" />
        </mxCell>
        <mxCell id="ch4QMYqMHI65cW54n4_m-209" value="System" style="swimlane;whiteSpace=wrap" vertex="1" parent="ch4QMYqMHI65cW54n4_m-42">
          <mxGeometry x="284.5" y="1107" width="399.5" height="458" as="geometry" />
        </mxCell>
        <mxCell id="ch4QMYqMHI65cW54n4_m-210" value="MenampilkanÂ &#xa;Homepage" style="" vertex="1" parent="ch4QMYqMHI65cW54n4_m-209">
          <mxGeometry x="157.25" y="235" width="110" height="50" as="geometry" />
        </mxCell>
        <mxCell id="ch4QMYqMHI65cW54n4_m-211" style="edgeStyle=orthogonalEdgeStyle;rounded=0;orthogonalLoop=1;jettySize=auto;html=1;entryX=0.5;entryY=0;entryDx=0;entryDy=0;exitX=1;exitY=0.5;exitDx=0;exitDy=0;" edge="1" parent="ch4QMYqMHI65cW54n4_m-209" source="ch4QMYqMHI65cW54n4_m-212" target="ch4QMYqMHI65cW54n4_m-210">
          <mxGeometry relative="1" as="geometry">
            <mxPoint x="395" y="130" as="targetPoint" />
          </mxGeometry>
        </mxCell>
        <mxCell id="ch4QMYqMHI65cW54n4_m-212" value="&lt;font style=&quot;font-size: 11px;&quot;&gt;Validasi Username &amp;amp; Password&lt;/font&gt;" style="rhombus;whiteSpace=wrap;html=1;" vertex="1" parent="ch4QMYqMHI65cW54n4_m-209">
          <mxGeometry x="135" y="90" width="154.5" height="80" as="geometry" />
        </mxCell>
        <mxCell id="ch4QMYqMHI65cW54n4_m-246" style="edgeStyle=orthogonalEdgeStyle;rounded=0;orthogonalLoop=1;jettySize=auto;html=1;" edge="1" parent="ch4QMYqMHI65cW54n4_m-209" source="ch4QMYqMHI65cW54n4_m-214">
          <mxGeometry relative="1" as="geometry">
            <mxPoint x="212.5" y="410" as="targetPoint" />
          </mxGeometry>
        </mxCell>
        <mxCell id="ch4QMYqMHI65cW54n4_m-214" value="Sytem menampilkan List Artikel" style="rounded=0;whiteSpace=wrap;html=1;" vertex="1" parent="ch4QMYqMHI65cW54n4_m-209">
          <mxGeometry x="122.25" y="326" width="180" height="38" as="geometry" />
        </mxCell>
        <mxCell id="ch4QMYqMHI65cW54n4_m-231" value="" style="ellipse;shape=endState;fillColor=#000000;strokeColor=#ff0000" vertex="1" parent="ch4QMYqMHI65cW54n4_m-209">
          <mxGeometry x="197.25" y="410" width="30" height="30" as="geometry" />
        </mxCell>
        <mxCell id="ch4QMYqMHI65cW54n4_m-241" value="Not Valid" style="text;html=1;align=center;verticalAlign=middle;resizable=0;points=[];autosize=1;strokeColor=none;fillColor=none;" vertex="1" parent="ch4QMYqMHI65cW54n4_m-209">
          <mxGeometry x="70.5" y="160" width="70" height="30" as="geometry" />
        </mxCell>
        <mxCell id="ch4QMYqMHI65cW54n4_m-242" value="Valid" style="text;html=1;align=center;verticalAlign=middle;resizable=0;points=[];autosize=1;strokeColor=none;fillColor=none;" vertex="1" parent="ch4QMYqMHI65cW54n4_m-209">
          <mxGeometry x="307.25" y="160" width="50" height="30" as="geometry" />
        </mxCell>
        <mxCell id="ch4QMYqMHI65cW54n4_m-232" style="edgeStyle=orthogonalEdgeStyle;rounded=0;orthogonalLoop=1;jettySize=auto;html=1;exitX=1;exitY=0.5;exitDx=0;exitDy=0;entryX=0;entryY=0.5;entryDx=0;entryDy=0;" edge="1" parent="ch4QMYqMHI65cW54n4_m-42" source="ch4QMYqMHI65cW54n4_m-206" target="ch4QMYqMHI65cW54n4_m-212">
          <mxGeometry relative="1" as="geometry" />
        </mxCell>
        <mxCell id="ch4QMYqMHI65cW54n4_m-233" style="edgeStyle=orthogonalEdgeStyle;rounded=0;orthogonalLoop=1;jettySize=auto;html=1;entryX=0.5;entryY=1;entryDx=0;entryDy=0;exitX=0.5;exitY=1;exitDx=0;exitDy=0;" edge="1" parent="ch4QMYqMHI65cW54n4_m-42" source="ch4QMYqMHI65cW54n4_m-212" target="ch4QMYqMHI65cW54n4_m-206">
          <mxGeometry relative="1" as="geometry" />
        </mxCell>
        <mxCell id="ch4QMYqMHI65cW54n4_m-234" style="edgeStyle=orthogonalEdgeStyle;rounded=0;orthogonalLoop=1;jettySize=auto;html=1;entryX=1;entryY=0.5;entryDx=0;entryDy=0;" edge="1" parent="ch4QMYqMHI65cW54n4_m-42" source="ch4QMYqMHI65cW54n4_m-210" target="ch4QMYqMHI65cW54n4_m-207">
          <mxGeometry relative="1" as="geometry" />
        </mxCell>
        <mxCell id="ch4QMYqMHI65cW54n4_m-245" style="edgeStyle=orthogonalEdgeStyle;rounded=0;orthogonalLoop=1;jettySize=auto;html=1;entryX=0;entryY=0.5;entryDx=0;entryDy=0;" edge="1" parent="ch4QMYqMHI65cW54n4_m-42" source="ch4QMYqMHI65cW54n4_m-243" target="ch4QMYqMHI65cW54n4_m-214">
          <mxGeometry relative="1" as="geometry" />
        </mxCell>
        <mxCell id="ch4QMYqMHI65cW54n4_m-250" value="User" style="swimlane;whiteSpace=wrap" vertex="1" parent="ch4QMYqMHI65cW54n4_m-42">
          <mxGeometry x="5.5" y="1664" width="280" height="518" as="geometry" />
        </mxCell>
        <mxCell id="ch4QMYqMHI65cW54n4_m-251" value="" style="ellipse;shape=startState;fillColor=#000000;strokeColor=#ff0000;" vertex="1" parent="ch4QMYqMHI65cW54n4_m-250">
          <mxGeometry x="100" y="40" width="30" height="30" as="geometry" />
        </mxCell>
        <mxCell id="ch4QMYqMHI65cW54n4_m-252" value="" style="edgeStyle=elbowEdgeStyle;elbow=horizontal;verticalAlign=bottom;endArrow=open;endSize=8;strokeColor=#000000;endFill=1;rounded=0" edge="1" parent="ch4QMYqMHI65cW54n4_m-250" source="ch4QMYqMHI65cW54n4_m-251" target="ch4QMYqMHI65cW54n4_m-253">
          <mxGeometry x="100" y="40" as="geometry">
            <mxPoint x="115" y="110" as="targetPoint" />
          </mxGeometry>
        </mxCell>
        <mxCell id="ch4QMYqMHI65cW54n4_m-253" value="Login aplikasi&#xa;Healthducate" style="" vertex="1" parent="ch4QMYqMHI65cW54n4_m-250">
          <mxGeometry x="60" y="105" width="110" height="50" as="geometry" />
        </mxCell>
        <mxCell id="ch4QMYqMHI65cW54n4_m-255" value="User mencari&#xa;Video" style="" vertex="1" parent="ch4QMYqMHI65cW54n4_m-250">
          <mxGeometry x="60" y="310" width="110" height="50" as="geometry" />
        </mxCell>
        <mxCell id="ch4QMYqMHI65cW54n4_m-273" style="edgeStyle=orthogonalEdgeStyle;rounded=0;orthogonalLoop=1;jettySize=auto;html=1;entryX=0.5;entryY=0;entryDx=0;entryDy=0;" edge="1" parent="ch4QMYqMHI65cW54n4_m-250" source="ch4QMYqMHI65cW54n4_m-271" target="ch4QMYqMHI65cW54n4_m-255">
          <mxGeometry relative="1" as="geometry" />
        </mxCell>
        <mxCell id="ch4QMYqMHI65cW54n4_m-271" value="User menekan&#xa;menu search bar&#xa;" style="" vertex="1" parent="ch4QMYqMHI65cW54n4_m-250">
          <mxGeometry x="60" y="235" width="110" height="50" as="geometry" />
        </mxCell>
        <mxCell id="ch4QMYqMHI65cW54n4_m-257" value="System" style="swimlane;whiteSpace=wrap" vertex="1" parent="ch4QMYqMHI65cW54n4_m-42">
          <mxGeometry x="285.5" y="1664" width="399.5" height="518" as="geometry" />
        </mxCell>
        <mxCell id="ch4QMYqMHI65cW54n4_m-258" value="MenampilkanÂ &#xa;Homepage" style="" vertex="1" parent="ch4QMYqMHI65cW54n4_m-257">
          <mxGeometry x="157.25" y="235" width="110" height="50" as="geometry" />
        </mxCell>
        <mxCell id="ch4QMYqMHI65cW54n4_m-259" style="edgeStyle=orthogonalEdgeStyle;rounded=0;orthogonalLoop=1;jettySize=auto;html=1;entryX=0.5;entryY=0;entryDx=0;entryDy=0;exitX=1;exitY=0.5;exitDx=0;exitDy=0;" edge="1" parent="ch4QMYqMHI65cW54n4_m-257" source="ch4QMYqMHI65cW54n4_m-260" target="ch4QMYqMHI65cW54n4_m-258">
          <mxGeometry relative="1" as="geometry">
            <mxPoint x="395" y="130" as="targetPoint" />
          </mxGeometry>
        </mxCell>
        <mxCell id="ch4QMYqMHI65cW54n4_m-260" value="&lt;font style=&quot;font-size: 11px;&quot;&gt;Validasi Username &amp;amp; Password&lt;/font&gt;" style="rhombus;whiteSpace=wrap;html=1;" vertex="1" parent="ch4QMYqMHI65cW54n4_m-257">
          <mxGeometry x="135" y="90" width="154.5" height="80" as="geometry" />
        </mxCell>
        <mxCell id="ch4QMYqMHI65cW54n4_m-264" value="Not Valid" style="text;html=1;align=center;verticalAlign=middle;resizable=0;points=[];autosize=1;strokeColor=none;fillColor=none;" vertex="1" parent="ch4QMYqMHI65cW54n4_m-257">
          <mxGeometry x="70.5" y="160" width="70" height="30" as="geometry" />
        </mxCell>
        <mxCell id="ch4QMYqMHI65cW54n4_m-265" value="Valid" style="text;html=1;align=center;verticalAlign=middle;resizable=0;points=[];autosize=1;strokeColor=none;fillColor=none;" vertex="1" parent="ch4QMYqMHI65cW54n4_m-257">
          <mxGeometry x="307.25" y="160" width="50" height="30" as="geometry" />
        </mxCell>
        <mxCell id="ch4QMYqMHI65cW54n4_m-266" style="edgeStyle=orthogonalEdgeStyle;rounded=0;orthogonalLoop=1;jettySize=auto;html=1;exitX=1;exitY=0.5;exitDx=0;exitDy=0;entryX=0;entryY=0.5;entryDx=0;entryDy=0;" edge="1" parent="ch4QMYqMHI65cW54n4_m-42" source="ch4QMYqMHI65cW54n4_m-253" target="ch4QMYqMHI65cW54n4_m-260">
          <mxGeometry relative="1" as="geometry" />
        </mxCell>
        <mxCell id="ch4QMYqMHI65cW54n4_m-267" style="edgeStyle=orthogonalEdgeStyle;rounded=0;orthogonalLoop=1;jettySize=auto;html=1;entryX=0.5;entryY=1;entryDx=0;entryDy=0;exitX=0.5;exitY=1;exitDx=0;exitDy=0;" edge="1" parent="ch4QMYqMHI65cW54n4_m-42" source="ch4QMYqMHI65cW54n4_m-260" target="ch4QMYqMHI65cW54n4_m-253">
          <mxGeometry relative="1" as="geometry" />
        </mxCell>
        <mxCell id="ch4QMYqMHI65cW54n4_m-272" style="edgeStyle=orthogonalEdgeStyle;rounded=0;orthogonalLoop=1;jettySize=auto;html=1;exitX=0;exitY=0.5;exitDx=0;exitDy=0;entryX=1;entryY=0.5;entryDx=0;entryDy=0;" edge="1" parent="ch4QMYqMHI65cW54n4_m-42" source="ch4QMYqMHI65cW54n4_m-258" target="ch4QMYqMHI65cW54n4_m-271">
          <mxGeometry relative="1" as="geometry" />
        </mxCell>
        <mxCell id="ch4QMYqMHI65cW54n4_m-115" value="" style="group" vertex="1" connectable="0" parent="1">
          <mxGeometry x="120" y="1818" width="840" height="570" as="geometry" />
        </mxCell>
        <mxCell id="ch4QMYqMHI65cW54n4_m-256" value="User klik artikelÂ &#xa;yang ingin dibaca" style="" vertex="1" parent="ch4QMYqMHI65cW54n4_m-115">
          <mxGeometry x="110" y="392" width="110" height="50" as="geometry" />
        </mxCell>
        <mxCell id="ch4QMYqMHI65cW54n4_m-263" value="" style="ellipse;shape=endState;fillColor=#000000;strokeColor=#ff0000" vertex="1" parent="ch4QMYqMHI65cW54n4_m-115">
          <mxGeometry x="527.25" y="462" width="30" height="30" as="geometry" />
        </mxCell>
        <mxCell id="ch4QMYqMHI65cW54n4_m-274" style="edgeStyle=orthogonalEdgeStyle;rounded=0;orthogonalLoop=1;jettySize=auto;html=1;entryX=0.5;entryY=0;entryDx=0;entryDy=0;" edge="1" parent="ch4QMYqMHI65cW54n4_m-115" source="ch4QMYqMHI65cW54n4_m-262" target="ch4QMYqMHI65cW54n4_m-263">
          <mxGeometry relative="1" as="geometry" />
        </mxCell>
        <mxCell id="ch4QMYqMHI65cW54n4_m-262" value="Sytem menampilkan List Artikel" style="rounded=0;whiteSpace=wrap;html=1;" vertex="1" parent="ch4QMYqMHI65cW54n4_m-115">
          <mxGeometry x="452.25" y="398" width="180" height="38" as="geometry" />
        </mxCell>
        <mxCell id="ch4QMYqMHI65cW54n4_m-269" style="edgeStyle=orthogonalEdgeStyle;rounded=0;orthogonalLoop=1;jettySize=auto;html=1;entryX=0;entryY=0.5;entryDx=0;entryDy=0;" edge="1" parent="ch4QMYqMHI65cW54n4_m-115" source="ch4QMYqMHI65cW54n4_m-256" target="ch4QMYqMHI65cW54n4_m-262">
          <mxGeometry relative="1" as="geometry" />
        </mxCell>
        <mxCell id="ch4QMYqMHI65cW54n4_m-249" value="View Video" style="text;html=1;align=center;verticalAlign=middle;resizable=0;points=[];autosize=1;strokeColor=none;fillColor=none;" vertex="1" parent="1">
          <mxGeometry x="185" y="1760" width="80" height="30" as="geometry" />
        </mxCell>
        <mxCell id="ch4QMYqMHI65cW54n4_m-270" style="edgeStyle=orthogonalEdgeStyle;rounded=0;orthogonalLoop=1;jettySize=auto;html=1;exitX=0.5;exitY=1;exitDx=0;exitDy=0;entryX=0.5;entryY=0;entryDx=0;entryDy=0;" edge="1" parent="1" source="ch4QMYqMHI65cW54n4_m-255" target="ch4QMYqMHI65cW54n4_m-256">
          <mxGeometry relative="1" as="geometry" />
        </mxCell>
        <mxCell id="ch4QMYqMHI65cW54n4_m-275" value="User" style="swimlane;whiteSpace=wrap" vertex="1" parent="1">
          <mxGeometry x="164.5" y="2399" width="280" height="637" as="geometry" />
        </mxCell>
        <mxCell id="ch4QMYqMHI65cW54n4_m-276" value="" style="ellipse;shape=startState;fillColor=#000000;strokeColor=#ff0000;" vertex="1" parent="ch4QMYqMHI65cW54n4_m-275">
          <mxGeometry x="100" y="40" width="30" height="30" as="geometry" />
        </mxCell>
        <mxCell id="ch4QMYqMHI65cW54n4_m-277" value="" style="edgeStyle=elbowEdgeStyle;elbow=horizontal;verticalAlign=bottom;endArrow=open;endSize=8;strokeColor=#000000;endFill=1;rounded=0" edge="1" parent="ch4QMYqMHI65cW54n4_m-275" source="ch4QMYqMHI65cW54n4_m-276" target="ch4QMYqMHI65cW54n4_m-278">
          <mxGeometry x="100" y="40" as="geometry">
            <mxPoint x="115" y="110" as="targetPoint" />
          </mxGeometry>
        </mxCell>
        <mxCell id="ch4QMYqMHI65cW54n4_m-278" value="Login aplikasi&#xa;Healthducate" style="" vertex="1" parent="ch4QMYqMHI65cW54n4_m-275">
          <mxGeometry x="60" y="105" width="110" height="50" as="geometry" />
        </mxCell>
        <mxCell id="ch4QMYqMHI65cW54n4_m-281" value="User menekan&#xa;food page" style="" vertex="1" parent="ch4QMYqMHI65cW54n4_m-275">
          <mxGeometry x="60" y="235" width="110" height="50" as="geometry" />
        </mxCell>
        <mxCell id="ch4QMYqMHI65cW54n4_m-300" style="edgeStyle=orthogonalEdgeStyle;rounded=0;orthogonalLoop=1;jettySize=auto;html=1;" edge="1" parent="ch4QMYqMHI65cW54n4_m-275" source="ch4QMYqMHI65cW54n4_m-291">
          <mxGeometry relative="1" as="geometry">
            <mxPoint x="115" y="504.0000697544647" as="targetPoint" />
          </mxGeometry>
        </mxCell>
        <mxCell id="ch4QMYqMHI65cW54n4_m-291" value="User mencari&#xa;makanan" style="" vertex="1" parent="ch4QMYqMHI65cW54n4_m-275">
          <mxGeometry x="60" y="421" width="110" height="50" as="geometry" />
        </mxCell>
        <mxCell id="ch4QMYqMHI65cW54n4_m-301" value="User menekan&#xa;makanan yang dicari" style="" vertex="1" parent="ch4QMYqMHI65cW54n4_m-275">
          <mxGeometry x="60" y="505" width="110" height="50" as="geometry" />
        </mxCell>
        <mxCell id="ch4QMYqMHI65cW54n4_m-282" value="System" style="swimlane;whiteSpace=wrap" vertex="1" parent="1">
          <mxGeometry x="445" y="2399" width="399.5" height="637" as="geometry" />
        </mxCell>
        <mxCell id="ch4QMYqMHI65cW54n4_m-283" value="MenampilkanÂ &#xa;Homepage" style="" vertex="1" parent="ch4QMYqMHI65cW54n4_m-282">
          <mxGeometry x="157.25" y="235" width="110" height="50" as="geometry" />
        </mxCell>
        <mxCell id="ch4QMYqMHI65cW54n4_m-284" style="edgeStyle=orthogonalEdgeStyle;rounded=0;orthogonalLoop=1;jettySize=auto;html=1;entryX=0.5;entryY=0;entryDx=0;entryDy=0;exitX=1;exitY=0.5;exitDx=0;exitDy=0;" edge="1" parent="ch4QMYqMHI65cW54n4_m-282" source="ch4QMYqMHI65cW54n4_m-285" target="ch4QMYqMHI65cW54n4_m-283">
          <mxGeometry relative="1" as="geometry">
            <mxPoint x="395" y="130" as="targetPoint" />
          </mxGeometry>
        </mxCell>
        <mxCell id="ch4QMYqMHI65cW54n4_m-285" value="&lt;font style=&quot;font-size: 11px;&quot;&gt;Validasi Username &amp;amp; Password&lt;/font&gt;" style="rhombus;whiteSpace=wrap;html=1;" vertex="1" parent="ch4QMYqMHI65cW54n4_m-282">
          <mxGeometry x="135" y="90" width="154.5" height="80" as="geometry" />
        </mxCell>
        <mxCell id="ch4QMYqMHI65cW54n4_m-286" value="Not Valid" style="text;html=1;align=center;verticalAlign=middle;resizable=0;points=[];autosize=1;strokeColor=none;fillColor=none;" vertex="1" parent="ch4QMYqMHI65cW54n4_m-282">
          <mxGeometry x="70.5" y="160" width="70" height="30" as="geometry" />
        </mxCell>
        <mxCell id="ch4QMYqMHI65cW54n4_m-287" value="Valid" style="text;html=1;align=center;verticalAlign=middle;resizable=0;points=[];autosize=1;strokeColor=none;fillColor=none;" vertex="1" parent="ch4QMYqMHI65cW54n4_m-282">
          <mxGeometry x="307.25" y="160" width="50" height="30" as="geometry" />
        </mxCell>
        <mxCell id="ch4QMYqMHI65cW54n4_m-292" value="" style="ellipse;shape=endState;fillColor=#000000;strokeColor=#ff0000" vertex="1" parent="ch4QMYqMHI65cW54n4_m-282">
          <mxGeometry x="199" y="593" width="30" height="30" as="geometry" />
        </mxCell>
        <mxCell id="ch4QMYqMHI65cW54n4_m-294" value="System menampilkan informasi gizi dan resep" style="rounded=0;whiteSpace=wrap;html=1;" vertex="1" parent="ch4QMYqMHI65cW54n4_m-282">
          <mxGeometry x="124" y="511" width="180" height="38" as="geometry" />
        </mxCell>
        <mxCell id="ch4QMYqMHI65cW54n4_m-293" style="edgeStyle=orthogonalEdgeStyle;rounded=0;orthogonalLoop=1;jettySize=auto;html=1;entryX=0.5;entryY=0;entryDx=0;entryDy=0;" edge="1" parent="ch4QMYqMHI65cW54n4_m-282" source="ch4QMYqMHI65cW54n4_m-294" target="ch4QMYqMHI65cW54n4_m-292">
          <mxGeometry relative="1" as="geometry" />
        </mxCell>
        <mxCell id="ch4QMYqMHI65cW54n4_m-279" value="menampilkan&#xa;food page" style="" vertex="1" parent="ch4QMYqMHI65cW54n4_m-282">
          <mxGeometry x="157.25" y="332" width="110" height="50" as="geometry" />
        </mxCell>
        <mxCell id="ch4QMYqMHI65cW54n4_m-288" style="edgeStyle=orthogonalEdgeStyle;rounded=0;orthogonalLoop=1;jettySize=auto;html=1;exitX=1;exitY=0.5;exitDx=0;exitDy=0;entryX=0;entryY=0.5;entryDx=0;entryDy=0;" edge="1" parent="1" source="ch4QMYqMHI65cW54n4_m-278" target="ch4QMYqMHI65cW54n4_m-285">
          <mxGeometry relative="1" as="geometry" />
        </mxCell>
        <mxCell id="ch4QMYqMHI65cW54n4_m-289" style="edgeStyle=orthogonalEdgeStyle;rounded=0;orthogonalLoop=1;jettySize=auto;html=1;entryX=0.5;entryY=1;entryDx=0;entryDy=0;exitX=0.5;exitY=1;exitDx=0;exitDy=0;" edge="1" parent="1" source="ch4QMYqMHI65cW54n4_m-285" target="ch4QMYqMHI65cW54n4_m-278">
          <mxGeometry relative="1" as="geometry" />
        </mxCell>
        <mxCell id="ch4QMYqMHI65cW54n4_m-290" style="edgeStyle=orthogonalEdgeStyle;rounded=0;orthogonalLoop=1;jettySize=auto;html=1;exitX=0;exitY=0.5;exitDx=0;exitDy=0;entryX=1;entryY=0.5;entryDx=0;entryDy=0;" edge="1" parent="1" source="ch4QMYqMHI65cW54n4_m-283" target="ch4QMYqMHI65cW54n4_m-281">
          <mxGeometry relative="1" as="geometry" />
        </mxCell>
        <mxCell id="ch4QMYqMHI65cW54n4_m-296" value="View Makanan" style="text;html=1;align=center;verticalAlign=middle;resizable=0;points=[];autosize=1;strokeColor=none;fillColor=none;" vertex="1" parent="1">
          <mxGeometry x="171.5" y="2369" width="97" height="26" as="geometry" />
        </mxCell>
        <mxCell id="ch4QMYqMHI65cW54n4_m-280" style="edgeStyle=orthogonalEdgeStyle;rounded=0;orthogonalLoop=1;jettySize=auto;html=1;entryX=0.5;entryY=0;entryDx=0;entryDy=0;exitX=0.5;exitY=1;exitDx=0;exitDy=0;" edge="1" parent="1" source="ch4QMYqMHI65cW54n4_m-281" target="ch4QMYqMHI65cW54n4_m-279">
          <mxGeometry relative="1" as="geometry" />
        </mxCell>
        <mxCell id="ch4QMYqMHI65cW54n4_m-297" style="edgeStyle=orthogonalEdgeStyle;rounded=0;orthogonalLoop=1;jettySize=auto;html=1;exitX=0.5;exitY=1;exitDx=0;exitDy=0;entryX=0.5;entryY=0;entryDx=0;entryDy=0;" edge="1" parent="1" source="ch4QMYqMHI65cW54n4_m-279" target="ch4QMYqMHI65cW54n4_m-291">
          <mxGeometry relative="1" as="geometry" />
        </mxCell>
        <mxCell id="ch4QMYqMHI65cW54n4_m-302" style="edgeStyle=orthogonalEdgeStyle;rounded=0;orthogonalLoop=1;jettySize=auto;html=1;entryX=0;entryY=0.5;entryDx=0;entryDy=0;" edge="1" parent="1" source="ch4QMYqMHI65cW54n4_m-301" target="ch4QMYqMHI65cW54n4_m-294">
          <mxGeometry relative="1" as="geometry" />
        </mxCell>
        <mxCell id="ch4QMYqMHI65cW54n4_m-303" value="User" style="swimlane;whiteSpace=wrap;startSize=23;" vertex="1" parent="1">
          <mxGeometry x="180" y="3569" width="280" height="637" as="geometry" />
        </mxCell>
        <mxCell id="ch4QMYqMHI65cW54n4_m-304" value="" style="ellipse;shape=startState;fillColor=#000000;strokeColor=#ff0000;" vertex="1" parent="ch4QMYqMHI65cW54n4_m-303">
          <mxGeometry x="100" y="40" width="30" height="30" as="geometry" />
        </mxCell>
        <mxCell id="ch4QMYqMHI65cW54n4_m-305" value="" style="edgeStyle=elbowEdgeStyle;elbow=horizontal;verticalAlign=bottom;endArrow=open;endSize=8;strokeColor=#000000;endFill=1;rounded=0" edge="1" parent="ch4QMYqMHI65cW54n4_m-303" source="ch4QMYqMHI65cW54n4_m-304" target="ch4QMYqMHI65cW54n4_m-306">
          <mxGeometry x="100" y="40" as="geometry">
            <mxPoint x="115" y="110" as="targetPoint" />
          </mxGeometry>
        </mxCell>
        <mxCell id="ch4QMYqMHI65cW54n4_m-306" value="Login aplikasi&#xa;Healthducate" style="" vertex="1" parent="ch4QMYqMHI65cW54n4_m-303">
          <mxGeometry x="60" y="105" width="110" height="50" as="geometry" />
        </mxCell>
        <mxCell id="ch4QMYqMHI65cW54n4_m-307" value="User menekan&#xa;food page" style="" vertex="1" parent="ch4QMYqMHI65cW54n4_m-303">
          <mxGeometry x="60" y="235" width="110" height="50" as="geometry" />
        </mxCell>
        <mxCell id="ch4QMYqMHI65cW54n4_m-309" value="User menekan&#xa;rekomendasi restoran" style="" vertex="1" parent="ch4QMYqMHI65cW54n4_m-303">
          <mxGeometry x="60" y="421" width="121" height="50" as="geometry" />
        </mxCell>
        <mxCell id="ch4QMYqMHI65cW54n4_m-311" value="System" style="swimlane;whiteSpace=wrap" vertex="1" parent="1">
          <mxGeometry x="460.5" y="3569" width="399.5" height="637" as="geometry" />
        </mxCell>
        <mxCell id="ch4QMYqMHI65cW54n4_m-312" value="MenampilkanÂ &#xa;Homepage" style="" vertex="1" parent="ch4QMYqMHI65cW54n4_m-311">
          <mxGeometry x="157.25" y="235" width="110" height="50" as="geometry" />
        </mxCell>
        <mxCell id="ch4QMYqMHI65cW54n4_m-313" style="edgeStyle=orthogonalEdgeStyle;rounded=0;orthogonalLoop=1;jettySize=auto;html=1;entryX=0.5;entryY=0;entryDx=0;entryDy=0;exitX=1;exitY=0.5;exitDx=0;exitDy=0;" edge="1" parent="ch4QMYqMHI65cW54n4_m-311" source="ch4QMYqMHI65cW54n4_m-314" target="ch4QMYqMHI65cW54n4_m-312">
          <mxGeometry relative="1" as="geometry">
            <mxPoint x="395" y="130" as="targetPoint" />
          </mxGeometry>
        </mxCell>
        <mxCell id="ch4QMYqMHI65cW54n4_m-314" value="&lt;font style=&quot;font-size: 11px;&quot;&gt;Validasi Username &amp;amp; Password&lt;/font&gt;" style="rhombus;whiteSpace=wrap;html=1;" vertex="1" parent="ch4QMYqMHI65cW54n4_m-311">
          <mxGeometry x="135" y="90" width="154.5" height="80" as="geometry" />
        </mxCell>
        <mxCell id="ch4QMYqMHI65cW54n4_m-315" value="Not Valid" style="text;html=1;align=center;verticalAlign=middle;resizable=0;points=[];autosize=1;strokeColor=none;fillColor=none;" vertex="1" parent="ch4QMYqMHI65cW54n4_m-311">
          <mxGeometry x="70.5" y="160" width="70" height="30" as="geometry" />
        </mxCell>
        <mxCell id="ch4QMYqMHI65cW54n4_m-316" value="Valid" style="text;html=1;align=center;verticalAlign=middle;resizable=0;points=[];autosize=1;strokeColor=none;fillColor=none;" vertex="1" parent="ch4QMYqMHI65cW54n4_m-311">
          <mxGeometry x="307.25" y="160" width="50" height="30" as="geometry" />
        </mxCell>
        <mxCell id="ch4QMYqMHI65cW54n4_m-317" value="" style="ellipse;shape=endState;fillColor=#000000;strokeColor=#ff0000" vertex="1" parent="ch4QMYqMHI65cW54n4_m-311">
          <mxGeometry x="184.75" y="572" width="30" height="30" as="geometry" />
        </mxCell>
        <mxCell id="ch4QMYqMHI65cW54n4_m-318" value="System menampilkan informasi restoran" style="rounded=0;whiteSpace=wrap;html=1;" vertex="1" parent="ch4QMYqMHI65cW54n4_m-311">
          <mxGeometry x="109.75" y="485" width="180" height="38" as="geometry" />
        </mxCell>
        <mxCell id="ch4QMYqMHI65cW54n4_m-319" style="edgeStyle=orthogonalEdgeStyle;rounded=0;orthogonalLoop=1;jettySize=auto;html=1;entryX=0.5;entryY=0;entryDx=0;entryDy=0;" edge="1" parent="ch4QMYqMHI65cW54n4_m-311" source="ch4QMYqMHI65cW54n4_m-318" target="ch4QMYqMHI65cW54n4_m-317">
          <mxGeometry relative="1" as="geometry" />
        </mxCell>
        <mxCell id="ch4QMYqMHI65cW54n4_m-320" value="menampilkan&#xa;food page" style="" vertex="1" parent="ch4QMYqMHI65cW54n4_m-311">
          <mxGeometry x="157.25" y="332" width="110" height="50" as="geometry" />
        </mxCell>
        <mxCell id="ch4QMYqMHI65cW54n4_m-321" style="edgeStyle=orthogonalEdgeStyle;rounded=0;orthogonalLoop=1;jettySize=auto;html=1;exitX=1;exitY=0.5;exitDx=0;exitDy=0;entryX=0;entryY=0.5;entryDx=0;entryDy=0;" edge="1" parent="1" source="ch4QMYqMHI65cW54n4_m-306" target="ch4QMYqMHI65cW54n4_m-314">
          <mxGeometry relative="1" as="geometry" />
        </mxCell>
        <mxCell id="ch4QMYqMHI65cW54n4_m-322" style="edgeStyle=orthogonalEdgeStyle;rounded=0;orthogonalLoop=1;jettySize=auto;html=1;entryX=0.5;entryY=1;entryDx=0;entryDy=0;exitX=0.5;exitY=1;exitDx=0;exitDy=0;" edge="1" parent="1" source="ch4QMYqMHI65cW54n4_m-314" target="ch4QMYqMHI65cW54n4_m-306">
          <mxGeometry relative="1" as="geometry" />
        </mxCell>
        <mxCell id="ch4QMYqMHI65cW54n4_m-323" style="edgeStyle=orthogonalEdgeStyle;rounded=0;orthogonalLoop=1;jettySize=auto;html=1;exitX=0;exitY=0.5;exitDx=0;exitDy=0;entryX=1;entryY=0.5;entryDx=0;entryDy=0;" edge="1" parent="1" source="ch4QMYqMHI65cW54n4_m-312" target="ch4QMYqMHI65cW54n4_m-307">
          <mxGeometry relative="1" as="geometry" />
        </mxCell>
        <mxCell id="ch4QMYqMHI65cW54n4_m-324" value="View Restoran" style="text;html=1;align=center;verticalAlign=middle;resizable=0;points=[];autosize=1;strokeColor=none;fillColor=none;" vertex="1" parent="1">
          <mxGeometry x="188" y="3539" width="96" height="26" as="geometry" />
        </mxCell>
        <mxCell id="ch4QMYqMHI65cW54n4_m-325" style="edgeStyle=orthogonalEdgeStyle;rounded=0;orthogonalLoop=1;jettySize=auto;html=1;entryX=0.5;entryY=0;entryDx=0;entryDy=0;exitX=0.5;exitY=1;exitDx=0;exitDy=0;" edge="1" parent="1" source="ch4QMYqMHI65cW54n4_m-307" target="ch4QMYqMHI65cW54n4_m-320">
          <mxGeometry relative="1" as="geometry" />
        </mxCell>
        <mxCell id="ch4QMYqMHI65cW54n4_m-326" style="edgeStyle=orthogonalEdgeStyle;rounded=0;orthogonalLoop=1;jettySize=auto;html=1;exitX=0.5;exitY=1;exitDx=0;exitDy=0;entryX=0.5;entryY=0;entryDx=0;entryDy=0;" edge="1" parent="1" source="ch4QMYqMHI65cW54n4_m-320" target="ch4QMYqMHI65cW54n4_m-309">
          <mxGeometry relative="1" as="geometry" />
        </mxCell>
        <mxCell id="ch4QMYqMHI65cW54n4_m-328" style="edgeStyle=orthogonalEdgeStyle;rounded=0;orthogonalLoop=1;jettySize=auto;html=1;entryX=0;entryY=0.5;entryDx=0;entryDy=0;exitX=0.5;exitY=1;exitDx=0;exitDy=0;" edge="1" parent="1" source="ch4QMYqMHI65cW54n4_m-309" target="ch4QMYqMHI65cW54n4_m-318">
          <mxGeometry relative="1" as="geometry" />
        </mxCell>
        <mxCell id="ch4QMYqMHI65cW54n4_m-329" value="User" style="swimlane;whiteSpace=wrap" vertex="1" parent="1">
          <mxGeometry x="168" y="4730" width="280" height="697" as="geometry" />
        </mxCell>
        <mxCell id="ch4QMYqMHI65cW54n4_m-330" value="" style="ellipse;shape=startState;fillColor=#000000;strokeColor=#ff0000;" vertex="1" parent="ch4QMYqMHI65cW54n4_m-329">
          <mxGeometry x="100" y="40" width="30" height="30" as="geometry" />
        </mxCell>
        <mxCell id="ch4QMYqMHI65cW54n4_m-331" value="" style="edgeStyle=elbowEdgeStyle;elbow=horizontal;verticalAlign=bottom;endArrow=open;endSize=8;strokeColor=#000000;endFill=1;rounded=0" edge="1" parent="ch4QMYqMHI65cW54n4_m-329" source="ch4QMYqMHI65cW54n4_m-330" target="ch4QMYqMHI65cW54n4_m-332">
          <mxGeometry x="100" y="40" as="geometry">
            <mxPoint x="115" y="110" as="targetPoint" />
          </mxGeometry>
        </mxCell>
        <mxCell id="ch4QMYqMHI65cW54n4_m-332" value="Login aplikasi&#xa;Healthducate" style="" vertex="1" parent="ch4QMYqMHI65cW54n4_m-329">
          <mxGeometry x="60" y="105" width="110" height="50" as="geometry" />
        </mxCell>
        <mxCell id="ch4QMYqMHI65cW54n4_m-333" value="User menekan&#xa;sport page" style="" vertex="1" parent="ch4QMYqMHI65cW54n4_m-329">
          <mxGeometry x="60" y="235" width="110" height="50" as="geometry" />
        </mxCell>
        <mxCell id="ch4QMYqMHI65cW54n4_m-334" value="User&#xa;menambahkan goals" style="" vertex="1" parent="ch4QMYqMHI65cW54n4_m-329">
          <mxGeometry x="60" y="421" width="121" height="50" as="geometry" />
        </mxCell>
        <mxCell id="ch4QMYqMHI65cW54n4_m-335" value="System" style="swimlane;whiteSpace=wrap" vertex="1" parent="1">
          <mxGeometry x="448.5" y="4730" width="399.5" height="698" as="geometry" />
        </mxCell>
        <mxCell id="ch4QMYqMHI65cW54n4_m-336" value="MenampilkanÂ &#xa;Homepage" style="" vertex="1" parent="ch4QMYqMHI65cW54n4_m-335">
          <mxGeometry x="157.25" y="235" width="110" height="50" as="geometry" />
        </mxCell>
        <mxCell id="ch4QMYqMHI65cW54n4_m-337" style="edgeStyle=orthogonalEdgeStyle;rounded=0;orthogonalLoop=1;jettySize=auto;html=1;entryX=0.5;entryY=0;entryDx=0;entryDy=0;exitX=1;exitY=0.5;exitDx=0;exitDy=0;" edge="1" parent="ch4QMYqMHI65cW54n4_m-335" source="ch4QMYqMHI65cW54n4_m-338" target="ch4QMYqMHI65cW54n4_m-336">
          <mxGeometry relative="1" as="geometry">
            <mxPoint x="395" y="130" as="targetPoint" />
          </mxGeometry>
        </mxCell>
        <mxCell id="ch4QMYqMHI65cW54n4_m-338" value="&lt;font style=&quot;font-size: 11px;&quot;&gt;Validasi Username &amp;amp; Password&lt;/font&gt;" style="rhombus;whiteSpace=wrap;html=1;" vertex="1" parent="ch4QMYqMHI65cW54n4_m-335">
          <mxGeometry x="135" y="90" width="154.5" height="80" as="geometry" />
        </mxCell>
        <mxCell id="ch4QMYqMHI65cW54n4_m-339" value="Not Valid" style="text;html=1;align=center;verticalAlign=middle;resizable=0;points=[];autosize=1;strokeColor=none;fillColor=none;" vertex="1" parent="ch4QMYqMHI65cW54n4_m-335">
          <mxGeometry x="70.5" y="160" width="70" height="30" as="geometry" />
        </mxCell>
        <mxCell id="ch4QMYqMHI65cW54n4_m-340" value="Valid" style="text;html=1;align=center;verticalAlign=middle;resizable=0;points=[];autosize=1;strokeColor=none;fillColor=none;" vertex="1" parent="ch4QMYqMHI65cW54n4_m-335">
          <mxGeometry x="307.25" y="160" width="50" height="30" as="geometry" />
        </mxCell>
        <mxCell id="ch4QMYqMHI65cW54n4_m-341" value="" style="ellipse;shape=endState;fillColor=#000000;strokeColor=#ff0000" vertex="1" parent="ch4QMYqMHI65cW54n4_m-335">
          <mxGeometry x="199" y="653" width="30" height="30" as="geometry" />
        </mxCell>
        <mxCell id="ch4QMYqMHI65cW54n4_m-386" style="edgeStyle=orthogonalEdgeStyle;rounded=0;orthogonalLoop=1;jettySize=auto;html=1;" edge="1" parent="ch4QMYqMHI65cW54n4_m-335" source="ch4QMYqMHI65cW54n4_m-342" target="ch4QMYqMHI65cW54n4_m-385">
          <mxGeometry relative="1" as="geometry" />
        </mxCell>
        <mxCell id="ch4QMYqMHI65cW54n4_m-342" value="System update goals" style="rounded=0;whiteSpace=wrap;html=1;" vertex="1" parent="ch4QMYqMHI65cW54n4_m-335">
          <mxGeometry x="124" y="511" width="180" height="38" as="geometry" />
        </mxCell>
        <mxCell id="ch4QMYqMHI65cW54n4_m-344" value="Menampilkan&#xa;sport page" style="" vertex="1" parent="ch4QMYqMHI65cW54n4_m-335">
          <mxGeometry x="157.25" y="332" width="110" height="50" as="geometry" />
        </mxCell>
        <mxCell id="ch4QMYqMHI65cW54n4_m-387" style="edgeStyle=orthogonalEdgeStyle;rounded=0;orthogonalLoop=1;jettySize=auto;html=1;entryX=0.5;entryY=0;entryDx=0;entryDy=0;" edge="1" parent="ch4QMYqMHI65cW54n4_m-335" source="ch4QMYqMHI65cW54n4_m-385" target="ch4QMYqMHI65cW54n4_m-341">
          <mxGeometry relative="1" as="geometry" />
        </mxCell>
        <mxCell id="ch4QMYqMHI65cW54n4_m-385" value="System menampilkan goals&amp;nbsp;" style="rounded=0;whiteSpace=wrap;html=1;" vertex="1" parent="ch4QMYqMHI65cW54n4_m-335">
          <mxGeometry x="124" y="580" width="180" height="38" as="geometry" />
        </mxCell>
        <mxCell id="ch4QMYqMHI65cW54n4_m-345" style="edgeStyle=orthogonalEdgeStyle;rounded=0;orthogonalLoop=1;jettySize=auto;html=1;exitX=1;exitY=0.5;exitDx=0;exitDy=0;entryX=0;entryY=0.5;entryDx=0;entryDy=0;" edge="1" parent="1" source="ch4QMYqMHI65cW54n4_m-332" target="ch4QMYqMHI65cW54n4_m-338">
          <mxGeometry relative="1" as="geometry" />
        </mxCell>
        <mxCell id="ch4QMYqMHI65cW54n4_m-346" style="edgeStyle=orthogonalEdgeStyle;rounded=0;orthogonalLoop=1;jettySize=auto;html=1;entryX=0.5;entryY=1;entryDx=0;entryDy=0;exitX=0.5;exitY=1;exitDx=0;exitDy=0;" edge="1" parent="1" source="ch4QMYqMHI65cW54n4_m-338" target="ch4QMYqMHI65cW54n4_m-332">
          <mxGeometry relative="1" as="geometry" />
        </mxCell>
        <mxCell id="ch4QMYqMHI65cW54n4_m-347" style="edgeStyle=orthogonalEdgeStyle;rounded=0;orthogonalLoop=1;jettySize=auto;html=1;exitX=0;exitY=0.5;exitDx=0;exitDy=0;entryX=1;entryY=0.5;entryDx=0;entryDy=0;" edge="1" parent="1" source="ch4QMYqMHI65cW54n4_m-336" target="ch4QMYqMHI65cW54n4_m-333">
          <mxGeometry relative="1" as="geometry" />
        </mxCell>
        <mxCell id="ch4QMYqMHI65cW54n4_m-348" value="Membuat goals" style="text;html=1;align=center;verticalAlign=middle;resizable=0;points=[];autosize=1;strokeColor=none;fillColor=none;" vertex="1" parent="1">
          <mxGeometry x="168.5" y="4699" width="100" height="26" as="geometry" />
        </mxCell>
        <mxCell id="ch4QMYqMHI65cW54n4_m-349" style="edgeStyle=orthogonalEdgeStyle;rounded=0;orthogonalLoop=1;jettySize=auto;html=1;entryX=0.5;entryY=0;entryDx=0;entryDy=0;exitX=0.5;exitY=1;exitDx=0;exitDy=0;" edge="1" parent="1" source="ch4QMYqMHI65cW54n4_m-333" target="ch4QMYqMHI65cW54n4_m-344">
          <mxGeometry relative="1" as="geometry" />
        </mxCell>
        <mxCell id="ch4QMYqMHI65cW54n4_m-350" style="edgeStyle=orthogonalEdgeStyle;rounded=0;orthogonalLoop=1;jettySize=auto;html=1;exitX=0.5;exitY=1;exitDx=0;exitDy=0;entryX=0.5;entryY=0;entryDx=0;entryDy=0;" edge="1" parent="1" source="ch4QMYqMHI65cW54n4_m-344" target="ch4QMYqMHI65cW54n4_m-334">
          <mxGeometry relative="1" as="geometry" />
        </mxCell>
        <mxCell id="ch4QMYqMHI65cW54n4_m-351" style="edgeStyle=orthogonalEdgeStyle;rounded=0;orthogonalLoop=1;jettySize=auto;html=1;entryX=0;entryY=0.5;entryDx=0;entryDy=0;exitX=0.5;exitY=1;exitDx=0;exitDy=0;" edge="1" parent="1" source="ch4QMYqMHI65cW54n4_m-334" target="ch4QMYqMHI65cW54n4_m-342">
          <mxGeometry relative="1" as="geometry" />
        </mxCell>
        <mxCell id="ch4QMYqMHI65cW54n4_m-352" value="User" style="swimlane;whiteSpace=wrap" vertex="1" parent="1">
          <mxGeometry x="176" y="5966" width="280" height="817" as="geometry" />
        </mxCell>
        <mxCell id="ch4QMYqMHI65cW54n4_m-353" value="" style="ellipse;shape=startState;fillColor=#000000;strokeColor=#ff0000;" vertex="1" parent="ch4QMYqMHI65cW54n4_m-352">
          <mxGeometry x="100" y="40" width="30" height="30" as="geometry" />
        </mxCell>
        <mxCell id="ch4QMYqMHI65cW54n4_m-354" value="" style="edgeStyle=elbowEdgeStyle;elbow=horizontal;verticalAlign=bottom;endArrow=open;endSize=8;strokeColor=#000000;endFill=1;rounded=0" edge="1" parent="ch4QMYqMHI65cW54n4_m-352" source="ch4QMYqMHI65cW54n4_m-353" target="ch4QMYqMHI65cW54n4_m-355">
          <mxGeometry x="100" y="40" as="geometry">
            <mxPoint x="115" y="110" as="targetPoint" />
          </mxGeometry>
        </mxCell>
        <mxCell id="ch4QMYqMHI65cW54n4_m-355" value="Login aplikasi&#xa;Healthducate" style="" vertex="1" parent="ch4QMYqMHI65cW54n4_m-352">
          <mxGeometry x="60" y="105" width="110" height="50" as="geometry" />
        </mxCell>
        <mxCell id="ch4QMYqMHI65cW54n4_m-356" value="User menekan Sport&#xa;Page" style="" vertex="1" parent="ch4QMYqMHI65cW54n4_m-352">
          <mxGeometry x="52" y="235" width="118" height="50" as="geometry" />
        </mxCell>
        <mxCell id="ch4QMYqMHI65cW54n4_m-357" value="User mengaktifkan fitur&#xa;tracking jarak dan waktu jogging" style="" vertex="1" parent="ch4QMYqMHI65cW54n4_m-352">
          <mxGeometry x="24.5" y="418" width="181" height="50" as="geometry" />
        </mxCell>
        <mxCell id="ch4QMYqMHI65cW54n4_m-379" style="edgeStyle=orthogonalEdgeStyle;rounded=0;orthogonalLoop=1;jettySize=auto;html=1;entryX=0.5;entryY=0;entryDx=0;entryDy=0;" edge="1" parent="ch4QMYqMHI65cW54n4_m-352" source="ch4QMYqMHI65cW54n4_m-375" target="ch4QMYqMHI65cW54n4_m-376">
          <mxGeometry relative="1" as="geometry" />
        </mxCell>
        <mxCell id="ch4QMYqMHI65cW54n4_m-375" value="User selesai jogging" style="rounded=0;whiteSpace=wrap;html=1;" vertex="1" parent="ch4QMYqMHI65cW54n4_m-352">
          <mxGeometry x="30" y="576" width="180" height="38" as="geometry" />
        </mxCell>
        <mxCell id="ch4QMYqMHI65cW54n4_m-376" value="User mematikan fitur tracking" style="rounded=0;whiteSpace=wrap;html=1;" vertex="1" parent="ch4QMYqMHI65cW54n4_m-352">
          <mxGeometry x="30" y="644" width="180" height="38" as="geometry" />
        </mxCell>
        <mxCell id="ch4QMYqMHI65cW54n4_m-358" value="System" style="swimlane;whiteSpace=wrap" vertex="1" parent="1">
          <mxGeometry x="456.5" y="5966" width="399.5" height="817" as="geometry" />
        </mxCell>
        <mxCell id="ch4QMYqMHI65cW54n4_m-359" value="MenampilkanÂ &#xa;Homepage" style="" vertex="1" parent="ch4QMYqMHI65cW54n4_m-358">
          <mxGeometry x="157.25" y="235" width="110" height="50" as="geometry" />
        </mxCell>
        <mxCell id="ch4QMYqMHI65cW54n4_m-360" style="edgeStyle=orthogonalEdgeStyle;rounded=0;orthogonalLoop=1;jettySize=auto;html=1;entryX=0.5;entryY=0;entryDx=0;entryDy=0;exitX=1;exitY=0.5;exitDx=0;exitDy=0;" edge="1" parent="ch4QMYqMHI65cW54n4_m-358" source="ch4QMYqMHI65cW54n4_m-361" target="ch4QMYqMHI65cW54n4_m-359">
          <mxGeometry relative="1" as="geometry">
            <mxPoint x="395" y="130" as="targetPoint" />
          </mxGeometry>
        </mxCell>
        <mxCell id="ch4QMYqMHI65cW54n4_m-361" value="&lt;font style=&quot;font-size: 11px;&quot;&gt;Validasi Username &amp;amp; Password&lt;/font&gt;" style="rhombus;whiteSpace=wrap;html=1;" vertex="1" parent="ch4QMYqMHI65cW54n4_m-358">
          <mxGeometry x="135" y="90" width="154.5" height="80" as="geometry" />
        </mxCell>
        <mxCell id="ch4QMYqMHI65cW54n4_m-362" value="Not Valid" style="text;html=1;align=center;verticalAlign=middle;resizable=0;points=[];autosize=1;strokeColor=none;fillColor=none;" vertex="1" parent="ch4QMYqMHI65cW54n4_m-358">
          <mxGeometry x="70.5" y="160" width="70" height="30" as="geometry" />
        </mxCell>
        <mxCell id="ch4QMYqMHI65cW54n4_m-363" value="Valid" style="text;html=1;align=center;verticalAlign=middle;resizable=0;points=[];autosize=1;strokeColor=none;fillColor=none;" vertex="1" parent="ch4QMYqMHI65cW54n4_m-358">
          <mxGeometry x="307.25" y="160" width="50" height="30" as="geometry" />
        </mxCell>
        <mxCell id="ch4QMYqMHI65cW54n4_m-364" value="" style="ellipse;shape=endState;fillColor=#000000;strokeColor=#ff0000" vertex="1" parent="ch4QMYqMHI65cW54n4_m-358">
          <mxGeometry x="184.75" y="764" width="30" height="30" as="geometry" />
        </mxCell>
        <mxCell id="ch4QMYqMHI65cW54n4_m-365" value="System akan menghitung jarak dan waktu tempuh" style="rounded=0;whiteSpace=wrap;html=1;" vertex="1" parent="ch4QMYqMHI65cW54n4_m-358">
          <mxGeometry x="124" y="511" width="180" height="38" as="geometry" />
        </mxCell>
        <mxCell id="ch4QMYqMHI65cW54n4_m-367" value="Menampilkan sport&#xa;page" style="" vertex="1" parent="ch4QMYqMHI65cW54n4_m-358">
          <mxGeometry x="157.25" y="332" width="110" height="50" as="geometry" />
        </mxCell>
        <mxCell id="ch4QMYqMHI65cW54n4_m-380" value="System akan menyimpan jarak dan waktu tempuh jogging" style="rounded=0;whiteSpace=wrap;html=1;" vertex="1" parent="ch4QMYqMHI65cW54n4_m-358">
          <mxGeometry x="109.75" y="644" width="180" height="38" as="geometry" />
        </mxCell>
        <mxCell id="ch4QMYqMHI65cW54n4_m-384" style="edgeStyle=orthogonalEdgeStyle;rounded=0;orthogonalLoop=1;jettySize=auto;html=1;entryX=0.5;entryY=0;entryDx=0;entryDy=0;" edge="1" parent="ch4QMYqMHI65cW54n4_m-358" source="ch4QMYqMHI65cW54n4_m-381" target="ch4QMYqMHI65cW54n4_m-364">
          <mxGeometry relative="1" as="geometry" />
        </mxCell>
        <mxCell id="ch4QMYqMHI65cW54n4_m-381" value="System akan menampilkan hasil jarak dan waktu perhari dalm bentuk grafik" style="rounded=0;whiteSpace=wrap;html=1;" vertex="1" parent="ch4QMYqMHI65cW54n4_m-358">
          <mxGeometry x="86.5" y="707" width="226.5" height="38" as="geometry" />
        </mxCell>
        <mxCell id="ch4QMYqMHI65cW54n4_m-368" style="edgeStyle=orthogonalEdgeStyle;rounded=0;orthogonalLoop=1;jettySize=auto;html=1;exitX=1;exitY=0.5;exitDx=0;exitDy=0;entryX=0;entryY=0.5;entryDx=0;entryDy=0;" edge="1" parent="1" source="ch4QMYqMHI65cW54n4_m-355" target="ch4QMYqMHI65cW54n4_m-361">
          <mxGeometry relative="1" as="geometry" />
        </mxCell>
        <mxCell id="ch4QMYqMHI65cW54n4_m-369" style="edgeStyle=orthogonalEdgeStyle;rounded=0;orthogonalLoop=1;jettySize=auto;html=1;entryX=0.5;entryY=1;entryDx=0;entryDy=0;exitX=0.5;exitY=1;exitDx=0;exitDy=0;" edge="1" parent="1" source="ch4QMYqMHI65cW54n4_m-361" target="ch4QMYqMHI65cW54n4_m-355">
          <mxGeometry relative="1" as="geometry" />
        </mxCell>
        <mxCell id="ch4QMYqMHI65cW54n4_m-370" style="edgeStyle=orthogonalEdgeStyle;rounded=0;orthogonalLoop=1;jettySize=auto;html=1;exitX=0;exitY=0.5;exitDx=0;exitDy=0;entryX=1;entryY=0.5;entryDx=0;entryDy=0;" edge="1" parent="1" source="ch4QMYqMHI65cW54n4_m-359" target="ch4QMYqMHI65cW54n4_m-356">
          <mxGeometry relative="1" as="geometry" />
        </mxCell>
        <mxCell id="ch4QMYqMHI65cW54n4_m-371" value="Tracking jarak dan waktu jogging" style="text;html=1;align=center;verticalAlign=middle;resizable=0;points=[];autosize=1;strokeColor=none;fillColor=none;" vertex="1" parent="1">
          <mxGeometry x="136" y="5936" width="193" height="26" as="geometry" />
        </mxCell>
        <mxCell id="ch4QMYqMHI65cW54n4_m-372" style="edgeStyle=orthogonalEdgeStyle;rounded=0;orthogonalLoop=1;jettySize=auto;html=1;entryX=0.5;entryY=0;entryDx=0;entryDy=0;exitX=0.5;exitY=1;exitDx=0;exitDy=0;" edge="1" parent="1" source="ch4QMYqMHI65cW54n4_m-356" target="ch4QMYqMHI65cW54n4_m-367">
          <mxGeometry relative="1" as="geometry" />
        </mxCell>
        <mxCell id="ch4QMYqMHI65cW54n4_m-373" style="edgeStyle=orthogonalEdgeStyle;rounded=0;orthogonalLoop=1;jettySize=auto;html=1;exitX=0.5;exitY=1;exitDx=0;exitDy=0;entryX=0.5;entryY=0;entryDx=0;entryDy=0;" edge="1" parent="1" source="ch4QMYqMHI65cW54n4_m-367" target="ch4QMYqMHI65cW54n4_m-357">
          <mxGeometry relative="1" as="geometry" />
        </mxCell>
        <mxCell id="ch4QMYqMHI65cW54n4_m-374" style="edgeStyle=orthogonalEdgeStyle;rounded=0;orthogonalLoop=1;jettySize=auto;html=1;entryX=0;entryY=0.5;entryDx=0;entryDy=0;exitX=0.5;exitY=1;exitDx=0;exitDy=0;" edge="1" parent="1" source="ch4QMYqMHI65cW54n4_m-357" target="ch4QMYqMHI65cW54n4_m-365">
          <mxGeometry relative="1" as="geometry" />
        </mxCell>
        <mxCell id="ch4QMYqMHI65cW54n4_m-378" style="edgeStyle=orthogonalEdgeStyle;rounded=0;orthogonalLoop=1;jettySize=auto;html=1;entryX=1;entryY=0.5;entryDx=0;entryDy=0;exitX=0.5;exitY=1;exitDx=0;exitDy=0;" edge="1" parent="1" source="ch4QMYqMHI65cW54n4_m-365" target="ch4QMYqMHI65cW54n4_m-375">
          <mxGeometry relative="1" as="geometry" />
        </mxCell>
        <mxCell id="ch4QMYqMHI65cW54n4_m-382" style="edgeStyle=orthogonalEdgeStyle;rounded=0;orthogonalLoop=1;jettySize=auto;html=1;entryX=0;entryY=0.5;entryDx=0;entryDy=0;" edge="1" parent="1" source="ch4QMYqMHI65cW54n4_m-376" target="ch4QMYqMHI65cW54n4_m-380">
          <mxGeometry relative="1" as="geometry" />
        </mxCell>
        <mxCell id="ch4QMYqMHI65cW54n4_m-390" value="User" style="swimlane;whiteSpace=wrap" vertex="1" parent="1">
          <mxGeometry x="211.5" y="7154" width="280" height="817" as="geometry" />
        </mxCell>
        <mxCell id="ch4QMYqMHI65cW54n4_m-391" value="" style="ellipse;shape=startState;fillColor=#000000;strokeColor=#ff0000;" vertex="1" parent="ch4QMYqMHI65cW54n4_m-390">
          <mxGeometry x="100" y="40" width="30" height="30" as="geometry" />
        </mxCell>
        <mxCell id="ch4QMYqMHI65cW54n4_m-392" value="" style="edgeStyle=elbowEdgeStyle;elbow=horizontal;verticalAlign=bottom;endArrow=open;endSize=8;strokeColor=#000000;endFill=1;rounded=0" edge="1" parent="ch4QMYqMHI65cW54n4_m-390" source="ch4QMYqMHI65cW54n4_m-391" target="ch4QMYqMHI65cW54n4_m-393">
          <mxGeometry x="100" y="40" as="geometry">
            <mxPoint x="115" y="110" as="targetPoint" />
          </mxGeometry>
        </mxCell>
        <mxCell id="ch4QMYqMHI65cW54n4_m-393" value="Login aplikasi&#xa;Healthducate" style="" vertex="1" parent="ch4QMYqMHI65cW54n4_m-390">
          <mxGeometry x="60" y="105" width="110" height="50" as="geometry" />
        </mxCell>
        <mxCell id="ch4QMYqMHI65cW54n4_m-394" value="User menekan&#xa;food page" style="" vertex="1" parent="ch4QMYqMHI65cW54n4_m-390">
          <mxGeometry x="56" y="235" width="118" height="50" as="geometry" />
        </mxCell>
        <mxCell id="ch4QMYqMHI65cW54n4_m-407" value="User menekan tombol&#xa;calculate calories" style="" vertex="1" parent="ch4QMYqMHI65cW54n4_m-390">
          <mxGeometry x="51" y="325" width="128" height="50" as="geometry" />
        </mxCell>
        <mxCell id="ch4QMYqMHI65cW54n4_m-416" style="edgeStyle=orthogonalEdgeStyle;rounded=0;orthogonalLoop=1;jettySize=auto;html=1;entryX=0.5;entryY=0;entryDx=0;entryDy=0;exitX=0.5;exitY=1;exitDx=0;exitDy=0;" edge="1" parent="ch4QMYqMHI65cW54n4_m-390" source="ch4QMYqMHI65cW54n4_m-394" target="ch4QMYqMHI65cW54n4_m-407">
          <mxGeometry relative="1" as="geometry" />
        </mxCell>
        <mxCell id="ch4QMYqMHI65cW54n4_m-406" value="User memasukan data berat badan, tinggi badan, umur, gender dan tingkat aktivitas" style="rounded=0;whiteSpace=wrap;html=1;" vertex="1" parent="ch4QMYqMHI65cW54n4_m-390">
          <mxGeometry x="21.5" y="479" width="234" height="38" as="geometry" />
        </mxCell>
        <mxCell id="ch4QMYqMHI65cW54n4_m-399" value="System" style="swimlane;whiteSpace=wrap" vertex="1" parent="1">
          <mxGeometry x="492" y="7154" width="399.5" height="817" as="geometry" />
        </mxCell>
        <mxCell id="ch4QMYqMHI65cW54n4_m-400" value="MenampilkanÂ &#xa;Homepage" style="" vertex="1" parent="ch4QMYqMHI65cW54n4_m-399">
          <mxGeometry x="157.25" y="235" width="110" height="50" as="geometry" />
        </mxCell>
        <mxCell id="ch4QMYqMHI65cW54n4_m-401" style="edgeStyle=orthogonalEdgeStyle;rounded=0;orthogonalLoop=1;jettySize=auto;html=1;entryX=0.5;entryY=0;entryDx=0;entryDy=0;exitX=1;exitY=0.5;exitDx=0;exitDy=0;" edge="1" parent="ch4QMYqMHI65cW54n4_m-399" source="ch4QMYqMHI65cW54n4_m-402" target="ch4QMYqMHI65cW54n4_m-400">
          <mxGeometry relative="1" as="geometry">
            <mxPoint x="395" y="130" as="targetPoint" />
          </mxGeometry>
        </mxCell>
        <mxCell id="ch4QMYqMHI65cW54n4_m-402" value="&lt;font style=&quot;font-size: 11px;&quot;&gt;Validasi Username &amp;amp; Password&lt;/font&gt;" style="rhombus;whiteSpace=wrap;html=1;" vertex="1" parent="ch4QMYqMHI65cW54n4_m-399">
          <mxGeometry x="135" y="90" width="154.5" height="80" as="geometry" />
        </mxCell>
        <mxCell id="ch4QMYqMHI65cW54n4_m-403" value="Not Valid" style="text;html=1;align=center;verticalAlign=middle;resizable=0;points=[];autosize=1;strokeColor=none;fillColor=none;" vertex="1" parent="ch4QMYqMHI65cW54n4_m-399">
          <mxGeometry x="70.5" y="160" width="70" height="30" as="geometry" />
        </mxCell>
        <mxCell id="ch4QMYqMHI65cW54n4_m-404" value="Valid" style="text;html=1;align=center;verticalAlign=middle;resizable=0;points=[];autosize=1;strokeColor=none;fillColor=none;" vertex="1" parent="ch4QMYqMHI65cW54n4_m-399">
          <mxGeometry x="307.25" y="160" width="50" height="30" as="geometry" />
        </mxCell>
        <mxCell id="ch4QMYqMHI65cW54n4_m-405" value="" style="ellipse;shape=endState;fillColor=#000000;strokeColor=#ff0000" vertex="1" parent="ch4QMYqMHI65cW54n4_m-399">
          <mxGeometry x="202.25" y="744" width="30" height="30" as="geometry" />
        </mxCell>
        <mxCell id="ch4QMYqMHI65cW54n4_m-395" value="Menampilkan Calculator&#xa;calories page" style="" vertex="1" parent="ch4QMYqMHI65cW54n4_m-399">
          <mxGeometry x="121.75" y="417" width="181" height="50" as="geometry" />
        </mxCell>
        <mxCell id="ch4QMYqMHI65cW54n4_m-397" value="System akan calculate kebutuhan kalori per hari" style="rounded=0;whiteSpace=wrap;html=1;" vertex="1" parent="ch4QMYqMHI65cW54n4_m-399">
          <mxGeometry x="127.25" y="573" width="180" height="38" as="geometry" />
        </mxCell>
        <mxCell id="ch4QMYqMHI65cW54n4_m-437" style="edgeStyle=orthogonalEdgeStyle;rounded=0;orthogonalLoop=1;jettySize=auto;html=1;exitX=0.5;exitY=1;exitDx=0;exitDy=0;" edge="1" parent="ch4QMYqMHI65cW54n4_m-399" source="ch4QMYqMHI65cW54n4_m-397" target="ch4QMYqMHI65cW54n4_m-397">
          <mxGeometry relative="1" as="geometry" />
        </mxCell>
        <mxCell id="ch4QMYqMHI65cW54n4_m-438" style="edgeStyle=orthogonalEdgeStyle;rounded=0;orthogonalLoop=1;jettySize=auto;html=1;entryX=0.5;entryY=0;entryDx=0;entryDy=0;" edge="1" parent="ch4QMYqMHI65cW54n4_m-399" source="ch4QMYqMHI65cW54n4_m-398" target="ch4QMYqMHI65cW54n4_m-405">
          <mxGeometry relative="1" as="geometry" />
        </mxCell>
        <mxCell id="ch4QMYqMHI65cW54n4_m-398" value="System menampilkan Kebutuhan kalori per hari" style="rounded=0;whiteSpace=wrap;html=1;" vertex="1" parent="ch4QMYqMHI65cW54n4_m-399">
          <mxGeometry x="127.25" y="665" width="180" height="38" as="geometry" />
        </mxCell>
        <mxCell id="ch4QMYqMHI65cW54n4_m-396" style="edgeStyle=orthogonalEdgeStyle;rounded=0;orthogonalLoop=1;jettySize=auto;html=1;entryX=0.5;entryY=0;entryDx=0;entryDy=0;" edge="1" parent="ch4QMYqMHI65cW54n4_m-399" source="ch4QMYqMHI65cW54n4_m-397" target="ch4QMYqMHI65cW54n4_m-398">
          <mxGeometry relative="1" as="geometry" />
        </mxCell>
        <mxCell id="ch4QMYqMHI65cW54n4_m-412" style="edgeStyle=orthogonalEdgeStyle;rounded=0;orthogonalLoop=1;jettySize=auto;html=1;exitX=1;exitY=0.5;exitDx=0;exitDy=0;entryX=0;entryY=0.5;entryDx=0;entryDy=0;" edge="1" parent="1" source="ch4QMYqMHI65cW54n4_m-393" target="ch4QMYqMHI65cW54n4_m-402">
          <mxGeometry relative="1" as="geometry" />
        </mxCell>
        <mxCell id="ch4QMYqMHI65cW54n4_m-413" style="edgeStyle=orthogonalEdgeStyle;rounded=0;orthogonalLoop=1;jettySize=auto;html=1;entryX=0.5;entryY=1;entryDx=0;entryDy=0;exitX=0.5;exitY=1;exitDx=0;exitDy=0;" edge="1" parent="1" source="ch4QMYqMHI65cW54n4_m-402" target="ch4QMYqMHI65cW54n4_m-393">
          <mxGeometry relative="1" as="geometry" />
        </mxCell>
        <mxCell id="ch4QMYqMHI65cW54n4_m-414" style="edgeStyle=orthogonalEdgeStyle;rounded=0;orthogonalLoop=1;jettySize=auto;html=1;exitX=0;exitY=0.5;exitDx=0;exitDy=0;entryX=1;entryY=0.5;entryDx=0;entryDy=0;" edge="1" parent="1" source="ch4QMYqMHI65cW54n4_m-400" target="ch4QMYqMHI65cW54n4_m-394">
          <mxGeometry relative="1" as="geometry" />
        </mxCell>
        <mxCell id="ch4QMYqMHI65cW54n4_m-415" value="Hitung kebutuhan kalori per hari" style="text;html=1;align=center;verticalAlign=middle;resizable=0;points=[];autosize=1;strokeColor=none;fillColor=none;" vertex="1" parent="1">
          <mxGeometry x="174.5" y="7124" width="188" height="26" as="geometry" />
        </mxCell>
        <mxCell id="ch4QMYqMHI65cW54n4_m-421" value="Admin" style="swimlane;whiteSpace=wrap" vertex="1" parent="1">
          <mxGeometry x="856" y="5966" width="331" height="817" as="geometry" />
        </mxCell>
        <mxCell id="ch4QMYqMHI65cW54n4_m-431" value="Admin akan menyimpan data ke summary report" style="rounded=0;whiteSpace=wrap;html=1;" vertex="1" parent="ch4QMYqMHI65cW54n4_m-421">
          <mxGeometry x="109.75" y="644" width="180" height="38" as="geometry" />
        </mxCell>
        <mxCell id="ch4QMYqMHI65cW54n4_m-435" style="edgeStyle=orthogonalEdgeStyle;rounded=0;orthogonalLoop=1;jettySize=auto;html=1;entryX=0;entryY=0.5;entryDx=0;entryDy=0;" edge="1" parent="1" source="ch4QMYqMHI65cW54n4_m-380" target="ch4QMYqMHI65cW54n4_m-431">
          <mxGeometry relative="1" as="geometry" />
        </mxCell>
        <mxCell id="ch4QMYqMHI65cW54n4_m-436" style="edgeStyle=orthogonalEdgeStyle;rounded=0;orthogonalLoop=1;jettySize=auto;html=1;entryX=1;entryY=0.5;entryDx=0;entryDy=0;exitX=0.5;exitY=1;exitDx=0;exitDy=0;" edge="1" parent="1" source="ch4QMYqMHI65cW54n4_m-431" target="ch4QMYqMHI65cW54n4_m-381">
          <mxGeometry relative="1" as="geometry" />
        </mxCell>
        <mxCell id="ch4QMYqMHI65cW54n4_m-417" style="edgeStyle=orthogonalEdgeStyle;rounded=0;orthogonalLoop=1;jettySize=auto;html=1;exitX=0.5;exitY=1;exitDx=0;exitDy=0;entryX=0.5;entryY=0;entryDx=0;entryDy=0;" edge="1" parent="1" source="ch4QMYqMHI65cW54n4_m-407" target="ch4QMYqMHI65cW54n4_m-395">
          <mxGeometry relative="1" as="geometry" />
        </mxCell>
        <mxCell id="ch4QMYqMHI65cW54n4_m-418" style="edgeStyle=orthogonalEdgeStyle;rounded=0;orthogonalLoop=1;jettySize=auto;html=1;entryX=0.5;entryY=0;entryDx=0;entryDy=0;exitX=0;exitY=0.5;exitDx=0;exitDy=0;" edge="1" parent="1" source="ch4QMYqMHI65cW54n4_m-395" target="ch4QMYqMHI65cW54n4_m-406">
          <mxGeometry relative="1" as="geometry" />
        </mxCell>
        <mxCell id="ch4QMYqMHI65cW54n4_m-419" style="edgeStyle=orthogonalEdgeStyle;rounded=0;orthogonalLoop=1;jettySize=auto;html=1;entryX=1;entryY=0.5;entryDx=0;entryDy=0;exitX=0.5;exitY=1;exitDx=0;exitDy=0;" edge="1" parent="1" source="ch4QMYqMHI65cW54n4_m-406" target="ch4QMYqMHI65cW54n4_m-397">
          <mxGeometry relative="1" as="geometry" />
        </mxCell>
        <mxCell id="ch4QMYqMHI65cW54n4_m-439" value="User" style="swimlane;whiteSpace=wrap;startSize=23;" vertex="1" parent="1">
          <mxGeometry x="248.5" y="8284" width="280" height="730" as="geometry" />
        </mxCell>
        <mxCell id="ch4QMYqMHI65cW54n4_m-440" value="" style="ellipse;shape=startState;fillColor=#000000;strokeColor=#ff0000;" vertex="1" parent="ch4QMYqMHI65cW54n4_m-439">
          <mxGeometry x="100" y="40" width="30" height="30" as="geometry" />
        </mxCell>
        <mxCell id="ch4QMYqMHI65cW54n4_m-441" value="" style="edgeStyle=elbowEdgeStyle;elbow=horizontal;verticalAlign=bottom;endArrow=open;endSize=8;strokeColor=#000000;endFill=1;rounded=0" edge="1" parent="ch4QMYqMHI65cW54n4_m-439" source="ch4QMYqMHI65cW54n4_m-440" target="ch4QMYqMHI65cW54n4_m-442">
          <mxGeometry x="100" y="40" as="geometry">
            <mxPoint x="115" y="110" as="targetPoint" />
          </mxGeometry>
        </mxCell>
        <mxCell id="ch4QMYqMHI65cW54n4_m-442" value="Login aplikasi&#xa;Healthducate" style="" vertex="1" parent="ch4QMYqMHI65cW54n4_m-439">
          <mxGeometry x="60" y="105" width="110" height="50" as="geometry" />
        </mxCell>
        <mxCell id="ch4QMYqMHI65cW54n4_m-443" value="User menekan tombol&#xa;community pageÂ " style="" vertex="1" parent="ch4QMYqMHI65cW54n4_m-439">
          <mxGeometry x="56" y="235" width="118" height="50" as="geometry" />
        </mxCell>
        <mxCell id="ch4QMYqMHI65cW54n4_m-454" value="User join group komunitas" style="" vertex="1" parent="ch4QMYqMHI65cW54n4_m-439">
          <mxGeometry x="60" y="424" width="181" height="50" as="geometry" />
        </mxCell>
        <mxCell id="ch4QMYqMHI65cW54n4_m-468" value="User melakukan chat" style="" vertex="1" parent="ch4QMYqMHI65cW54n4_m-439">
          <mxGeometry x="60" y="515" width="181" height="50" as="geometry" />
        </mxCell>
        <mxCell id="ch4QMYqMHI65cW54n4_m-447" value="System" style="swimlane;whiteSpace=wrap" vertex="1" parent="1">
          <mxGeometry x="529" y="8284" width="399.5" height="730" as="geometry" />
        </mxCell>
        <mxCell id="ch4QMYqMHI65cW54n4_m-448" value="MenampilkanÂ &#xa;Homepage" style="" vertex="1" parent="ch4QMYqMHI65cW54n4_m-447">
          <mxGeometry x="157.25" y="235" width="110" height="50" as="geometry" />
        </mxCell>
        <mxCell id="ch4QMYqMHI65cW54n4_m-449" style="edgeStyle=orthogonalEdgeStyle;rounded=0;orthogonalLoop=1;jettySize=auto;html=1;entryX=0.5;entryY=0;entryDx=0;entryDy=0;exitX=1;exitY=0.5;exitDx=0;exitDy=0;" edge="1" parent="ch4QMYqMHI65cW54n4_m-447" source="ch4QMYqMHI65cW54n4_m-450" target="ch4QMYqMHI65cW54n4_m-448">
          <mxGeometry relative="1" as="geometry">
            <mxPoint x="395" y="130" as="targetPoint" />
          </mxGeometry>
        </mxCell>
        <mxCell id="ch4QMYqMHI65cW54n4_m-450" value="&lt;font style=&quot;font-size: 11px;&quot;&gt;Validasi Username &amp;amp; Password&lt;/font&gt;" style="rhombus;whiteSpace=wrap;html=1;" vertex="1" parent="ch4QMYqMHI65cW54n4_m-447">
          <mxGeometry x="135" y="90" width="154.5" height="80" as="geometry" />
        </mxCell>
        <mxCell id="ch4QMYqMHI65cW54n4_m-451" value="Not Valid" style="text;html=1;align=center;verticalAlign=middle;resizable=0;points=[];autosize=1;strokeColor=none;fillColor=none;" vertex="1" parent="ch4QMYqMHI65cW54n4_m-447">
          <mxGeometry x="70.5" y="160" width="70" height="30" as="geometry" />
        </mxCell>
        <mxCell id="ch4QMYqMHI65cW54n4_m-452" value="Valid" style="text;html=1;align=center;verticalAlign=middle;resizable=0;points=[];autosize=1;strokeColor=none;fillColor=none;" vertex="1" parent="ch4QMYqMHI65cW54n4_m-447">
          <mxGeometry x="307.25" y="160" width="50" height="30" as="geometry" />
        </mxCell>
        <mxCell id="ch4QMYqMHI65cW54n4_m-453" value="" style="ellipse;shape=endState;fillColor=#000000;strokeColor=#ff0000" vertex="1" parent="ch4QMYqMHI65cW54n4_m-447">
          <mxGeometry x="202.25" y="664" width="30" height="30" as="geometry" />
        </mxCell>
        <mxCell id="ch4QMYqMHI65cW54n4_m-470" style="edgeStyle=orthogonalEdgeStyle;rounded=0;orthogonalLoop=1;jettySize=auto;html=1;entryX=0.5;entryY=0;entryDx=0;entryDy=0;" edge="1" parent="ch4QMYqMHI65cW54n4_m-447" source="ch4QMYqMHI65cW54n4_m-455" target="ch4QMYqMHI65cW54n4_m-453">
          <mxGeometry relative="1" as="geometry" />
        </mxCell>
        <mxCell id="ch4QMYqMHI65cW54n4_m-455" value="Sytem akan mengirim pesan kepada user lain" style="rounded=0;whiteSpace=wrap;html=1;" vertex="1" parent="ch4QMYqMHI65cW54n4_m-447">
          <mxGeometry x="127.25" y="573" width="180" height="38" as="geometry" />
        </mxCell>
        <mxCell id="ch4QMYqMHI65cW54n4_m-456" style="edgeStyle=orthogonalEdgeStyle;rounded=0;orthogonalLoop=1;jettySize=auto;html=1;exitX=0.5;exitY=1;exitDx=0;exitDy=0;" edge="1" parent="ch4QMYqMHI65cW54n4_m-447" source="ch4QMYqMHI65cW54n4_m-455" target="ch4QMYqMHI65cW54n4_m-455">
          <mxGeometry relative="1" as="geometry" />
        </mxCell>
        <mxCell id="ch4QMYqMHI65cW54n4_m-444" value="Menampilkan list&#xa;chat group community" style="" vertex="1" parent="ch4QMYqMHI65cW54n4_m-447">
          <mxGeometry x="148.25" y="333" width="128" height="50" as="geometry" />
        </mxCell>
        <mxCell id="ch4QMYqMHI65cW54n4_m-471" value="System menampilkan&#xa;chat group komunitas" style="" vertex="1" parent="ch4QMYqMHI65cW54n4_m-447">
          <mxGeometry x="121.75" y="424" width="181" height="50" as="geometry" />
        </mxCell>
        <mxCell id="ch4QMYqMHI65cW54n4_m-460" style="edgeStyle=orthogonalEdgeStyle;rounded=0;orthogonalLoop=1;jettySize=auto;html=1;exitX=1;exitY=0.5;exitDx=0;exitDy=0;entryX=0;entryY=0.5;entryDx=0;entryDy=0;" edge="1" parent="1" source="ch4QMYqMHI65cW54n4_m-442" target="ch4QMYqMHI65cW54n4_m-450">
          <mxGeometry relative="1" as="geometry" />
        </mxCell>
        <mxCell id="ch4QMYqMHI65cW54n4_m-461" style="edgeStyle=orthogonalEdgeStyle;rounded=0;orthogonalLoop=1;jettySize=auto;html=1;entryX=0.5;entryY=1;entryDx=0;entryDy=0;exitX=0.5;exitY=1;exitDx=0;exitDy=0;" edge="1" parent="1" source="ch4QMYqMHI65cW54n4_m-450" target="ch4QMYqMHI65cW54n4_m-442">
          <mxGeometry relative="1" as="geometry" />
        </mxCell>
        <mxCell id="ch4QMYqMHI65cW54n4_m-462" style="edgeStyle=orthogonalEdgeStyle;rounded=0;orthogonalLoop=1;jettySize=auto;html=1;exitX=0;exitY=0.5;exitDx=0;exitDy=0;entryX=1;entryY=0.5;entryDx=0;entryDy=0;" edge="1" parent="1" source="ch4QMYqMHI65cW54n4_m-448" target="ch4QMYqMHI65cW54n4_m-443">
          <mxGeometry relative="1" as="geometry" />
        </mxCell>
        <mxCell id="ch4QMYqMHI65cW54n4_m-463" value="Join Group komunitas&amp;nbsp;" style="text;html=1;align=center;verticalAlign=middle;resizable=0;points=[];autosize=1;strokeColor=none;fillColor=none;" vertex="1" parent="1">
          <mxGeometry x="236.5" y="8254" width="138" height="26" as="geometry" />
        </mxCell>
        <mxCell id="ch4QMYqMHI65cW54n4_m-445" style="edgeStyle=orthogonalEdgeStyle;rounded=0;orthogonalLoop=1;jettySize=auto;html=1;entryX=0.5;entryY=0;entryDx=0;entryDy=0;exitX=0.5;exitY=1;exitDx=0;exitDy=0;" edge="1" parent="1" source="ch4QMYqMHI65cW54n4_m-443" target="ch4QMYqMHI65cW54n4_m-444">
          <mxGeometry relative="1" as="geometry" />
        </mxCell>
        <mxCell id="ch4QMYqMHI65cW54n4_m-464" style="edgeStyle=orthogonalEdgeStyle;rounded=0;orthogonalLoop=1;jettySize=auto;html=1;exitX=0.5;exitY=1;exitDx=0;exitDy=0;entryX=0.5;entryY=0;entryDx=0;entryDy=0;" edge="1" parent="1" source="ch4QMYqMHI65cW54n4_m-444" target="ch4QMYqMHI65cW54n4_m-454">
          <mxGeometry relative="1" as="geometry" />
        </mxCell>
        <mxCell id="ch4QMYqMHI65cW54n4_m-472" style="edgeStyle=orthogonalEdgeStyle;rounded=0;orthogonalLoop=1;jettySize=auto;html=1;entryX=0;entryY=0.5;entryDx=0;entryDy=0;" edge="1" parent="1" source="ch4QMYqMHI65cW54n4_m-454" target="ch4QMYqMHI65cW54n4_m-471">
          <mxGeometry relative="1" as="geometry" />
        </mxCell>
        <mxCell id="ch4QMYqMHI65cW54n4_m-473" style="edgeStyle=orthogonalEdgeStyle;rounded=0;orthogonalLoop=1;jettySize=auto;html=1;entryX=1;entryY=0.5;entryDx=0;entryDy=0;exitX=0.5;exitY=1;exitDx=0;exitDy=0;" edge="1" parent="1" source="ch4QMYqMHI65cW54n4_m-471" target="ch4QMYqMHI65cW54n4_m-468">
          <mxGeometry relative="1" as="geometry" />
        </mxCell>
        <mxCell id="ch4QMYqMHI65cW54n4_m-474" style="edgeStyle=orthogonalEdgeStyle;rounded=0;orthogonalLoop=1;jettySize=auto;html=1;entryX=0;entryY=0.5;entryDx=0;entryDy=0;exitX=0.5;exitY=1;exitDx=0;exitDy=0;" edge="1" parent="1" source="ch4QMYqMHI65cW54n4_m-468" target="ch4QMYqMHI65cW54n4_m-455">
          <mxGeometry relative="1" as="geometry" />
        </mxCell>
        <mxCell id="ch4QMYqMHI65cW54n4_m-476" value="Admin" style="swimlane;whiteSpace=wrap" vertex="1" parent="1">
          <mxGeometry x="223.5" y="9411" width="280" height="730" as="geometry" />
        </mxCell>
        <mxCell id="ch4QMYqMHI65cW54n4_m-477" value="" style="ellipse;shape=startState;fillColor=#000000;strokeColor=#ff0000;" vertex="1" parent="ch4QMYqMHI65cW54n4_m-476">
          <mxGeometry x="100" y="40" width="30" height="30" as="geometry" />
        </mxCell>
        <mxCell id="ch4QMYqMHI65cW54n4_m-478" value="" style="edgeStyle=elbowEdgeStyle;elbow=horizontal;verticalAlign=bottom;endArrow=open;endSize=8;strokeColor=#000000;endFill=1;rounded=0" edge="1" parent="ch4QMYqMHI65cW54n4_m-476" source="ch4QMYqMHI65cW54n4_m-477" target="ch4QMYqMHI65cW54n4_m-479">
          <mxGeometry x="100" y="40" as="geometry">
            <mxPoint x="115" y="110" as="targetPoint" />
          </mxGeometry>
        </mxCell>
        <mxCell id="ch4QMYqMHI65cW54n4_m-479" value="Login aplikasi&#xa;Healthducate" style="" vertex="1" parent="ch4QMYqMHI65cW54n4_m-476">
          <mxGeometry x="60" y="105" width="110" height="50" as="geometry" />
        </mxCell>
        <mxCell id="ch4QMYqMHI65cW54n4_m-480" value="Admin menekan tombol&#xa;create summary report" style="" vertex="1" parent="ch4QMYqMHI65cW54n4_m-476">
          <mxGeometry x="56" y="235" width="144" height="50" as="geometry" />
        </mxCell>
        <mxCell id="ch4QMYqMHI65cW54n4_m-481" value="Admin membuat summary report" style="" vertex="1" parent="ch4QMYqMHI65cW54n4_m-476">
          <mxGeometry x="60" y="424" width="181" height="50" as="geometry" />
        </mxCell>
        <mxCell id="ch4QMYqMHI65cW54n4_m-494" value="Admin menekan tombol save" style="" vertex="1" parent="ch4QMYqMHI65cW54n4_m-476">
          <mxGeometry x="60" y="508" width="181" height="50" as="geometry" />
        </mxCell>
        <mxCell id="ch4QMYqMHI65cW54n4_m-501" style="edgeStyle=orthogonalEdgeStyle;rounded=0;orthogonalLoop=1;jettySize=auto;html=1;entryX=0.5;entryY=0;entryDx=0;entryDy=0;" edge="1" parent="ch4QMYqMHI65cW54n4_m-476" source="ch4QMYqMHI65cW54n4_m-481" target="ch4QMYqMHI65cW54n4_m-494">
          <mxGeometry relative="1" as="geometry" />
        </mxCell>
        <mxCell id="ch4QMYqMHI65cW54n4_m-483" value="System" style="swimlane;whiteSpace=wrap" vertex="1" parent="1">
          <mxGeometry x="503" y="9411" width="399.5" height="730" as="geometry" />
        </mxCell>
        <mxCell id="ch4QMYqMHI65cW54n4_m-484" value="MenampilkanÂ &#xa;Homepage" style="" vertex="1" parent="ch4QMYqMHI65cW54n4_m-483">
          <mxGeometry x="157.25" y="235" width="110" height="50" as="geometry" />
        </mxCell>
        <mxCell id="ch4QMYqMHI65cW54n4_m-485" style="edgeStyle=orthogonalEdgeStyle;rounded=0;orthogonalLoop=1;jettySize=auto;html=1;entryX=0.5;entryY=0;entryDx=0;entryDy=0;exitX=1;exitY=0.5;exitDx=0;exitDy=0;" edge="1" parent="ch4QMYqMHI65cW54n4_m-483" source="ch4QMYqMHI65cW54n4_m-486" target="ch4QMYqMHI65cW54n4_m-484">
          <mxGeometry relative="1" as="geometry">
            <mxPoint x="395" y="130" as="targetPoint" />
          </mxGeometry>
        </mxCell>
        <mxCell id="ch4QMYqMHI65cW54n4_m-486" value="&lt;font style=&quot;font-size: 11px;&quot;&gt;Validasi Username &amp;amp; Password&lt;/font&gt;" style="rhombus;whiteSpace=wrap;html=1;" vertex="1" parent="ch4QMYqMHI65cW54n4_m-483">
          <mxGeometry x="135" y="90" width="154.5" height="80" as="geometry" />
        </mxCell>
        <mxCell id="ch4QMYqMHI65cW54n4_m-487" value="Not Valid" style="text;html=1;align=center;verticalAlign=middle;resizable=0;points=[];autosize=1;strokeColor=none;fillColor=none;" vertex="1" parent="ch4QMYqMHI65cW54n4_m-483">
          <mxGeometry x="70.5" y="160" width="70" height="30" as="geometry" />
        </mxCell>
        <mxCell id="ch4QMYqMHI65cW54n4_m-488" value="Valid" style="text;html=1;align=center;verticalAlign=middle;resizable=0;points=[];autosize=1;strokeColor=none;fillColor=none;" vertex="1" parent="ch4QMYqMHI65cW54n4_m-483">
          <mxGeometry x="307.25" y="160" width="50" height="30" as="geometry" />
        </mxCell>
        <mxCell id="ch4QMYqMHI65cW54n4_m-491" value="System menampilkan list laporan per bulan" style="rounded=0;whiteSpace=wrap;html=1;" vertex="1" parent="ch4QMYqMHI65cW54n4_m-483">
          <mxGeometry x="127.25" y="595" width="180" height="38" as="geometry" />
        </mxCell>
        <mxCell id="ch4QMYqMHI65cW54n4_m-492" style="edgeStyle=orthogonalEdgeStyle;rounded=0;orthogonalLoop=1;jettySize=auto;html=1;exitX=0.5;exitY=1;exitDx=0;exitDy=0;" edge="1" parent="ch4QMYqMHI65cW54n4_m-483" source="ch4QMYqMHI65cW54n4_m-491" target="ch4QMYqMHI65cW54n4_m-491">
          <mxGeometry relative="1" as="geometry" />
        </mxCell>
        <mxCell id="ch4QMYqMHI65cW54n4_m-493" value="Menampilkan data yang&#xa;telah disimpan pada bentuk tabel" style="" vertex="1" parent="ch4QMYqMHI65cW54n4_m-483">
          <mxGeometry x="119" y="332" width="208.75" height="50" as="geometry" />
        </mxCell>
        <mxCell id="ch4QMYqMHI65cW54n4_m-518" style="edgeStyle=orthogonalEdgeStyle;rounded=0;orthogonalLoop=1;jettySize=auto;html=1;entryX=0.5;entryY=0;entryDx=0;entryDy=0;" edge="1" parent="ch4QMYqMHI65cW54n4_m-483" source="ch4QMYqMHI65cW54n4_m-504" target="ch4QMYqMHI65cW54n4_m-491">
          <mxGeometry relative="1" as="geometry" />
        </mxCell>
        <mxCell id="ch4QMYqMHI65cW54n4_m-504" value="System menyimpan laporanÂ " style="" vertex="1" parent="ch4QMYqMHI65cW54n4_m-483">
          <mxGeometry x="127.25" y="508" width="181" height="50" as="geometry" />
        </mxCell>
        <mxCell id="ch4QMYqMHI65cW54n4_m-495" style="edgeStyle=orthogonalEdgeStyle;rounded=0;orthogonalLoop=1;jettySize=auto;html=1;exitX=1;exitY=0.5;exitDx=0;exitDy=0;entryX=0;entryY=0.5;entryDx=0;entryDy=0;" edge="1" parent="1" source="ch4QMYqMHI65cW54n4_m-479" target="ch4QMYqMHI65cW54n4_m-486">
          <mxGeometry relative="1" as="geometry" />
        </mxCell>
        <mxCell id="ch4QMYqMHI65cW54n4_m-496" style="edgeStyle=orthogonalEdgeStyle;rounded=0;orthogonalLoop=1;jettySize=auto;html=1;entryX=0.5;entryY=1;entryDx=0;entryDy=0;exitX=0.5;exitY=1;exitDx=0;exitDy=0;" edge="1" parent="1" source="ch4QMYqMHI65cW54n4_m-486" target="ch4QMYqMHI65cW54n4_m-479">
          <mxGeometry relative="1" as="geometry" />
        </mxCell>
        <mxCell id="ch4QMYqMHI65cW54n4_m-497" style="edgeStyle=orthogonalEdgeStyle;rounded=0;orthogonalLoop=1;jettySize=auto;html=1;exitX=0;exitY=0.5;exitDx=0;exitDy=0;entryX=1;entryY=0.5;entryDx=0;entryDy=0;" edge="1" parent="1" source="ch4QMYqMHI65cW54n4_m-484" target="ch4QMYqMHI65cW54n4_m-480">
          <mxGeometry relative="1" as="geometry" />
        </mxCell>
        <mxCell id="ch4QMYqMHI65cW54n4_m-498" value="Ringkasan Laporan" style="text;html=1;align=center;verticalAlign=middle;resizable=0;points=[];autosize=1;strokeColor=none;fillColor=none;" vertex="1" parent="1">
          <mxGeometry x="219.5" y="9381" width="122" height="26" as="geometry" />
        </mxCell>
        <mxCell id="ch4QMYqMHI65cW54n4_m-499" style="edgeStyle=orthogonalEdgeStyle;rounded=0;orthogonalLoop=1;jettySize=auto;html=1;entryX=0.5;entryY=0;entryDx=0;entryDy=0;exitX=0.5;exitY=1;exitDx=0;exitDy=0;" edge="1" parent="1" source="ch4QMYqMHI65cW54n4_m-480" target="ch4QMYqMHI65cW54n4_m-493">
          <mxGeometry relative="1" as="geometry" />
        </mxCell>
        <mxCell id="ch4QMYqMHI65cW54n4_m-500" style="edgeStyle=orthogonalEdgeStyle;rounded=0;orthogonalLoop=1;jettySize=auto;html=1;exitX=0.5;exitY=1;exitDx=0;exitDy=0;entryX=0.5;entryY=0;entryDx=0;entryDy=0;" edge="1" parent="1" source="ch4QMYqMHI65cW54n4_m-493" target="ch4QMYqMHI65cW54n4_m-481">
          <mxGeometry relative="1" as="geometry" />
        </mxCell>
        <mxCell id="ch4QMYqMHI65cW54n4_m-505" value="Stakeholder" style="swimlane;whiteSpace=wrap;startSize=23;" vertex="1" parent="1">
          <mxGeometry x="902.5" y="9411" width="399.5" height="730" as="geometry" />
        </mxCell>
        <mxCell id="ch4QMYqMHI65cW54n4_m-514" style="edgeStyle=orthogonalEdgeStyle;rounded=0;orthogonalLoop=1;jettySize=auto;html=1;exitX=0.5;exitY=1;exitDx=0;exitDy=0;" edge="1" parent="ch4QMYqMHI65cW54n4_m-505">
          <mxGeometry relative="1" as="geometry">
            <mxPoint x="217.25" y="611" as="sourcePoint" />
            <mxPoint x="217.25" y="611" as="targetPoint" />
          </mxGeometry>
        </mxCell>
        <mxCell id="ch4QMYqMHI65cW54n4_m-537" style="edgeStyle=orthogonalEdgeStyle;rounded=0;orthogonalLoop=1;jettySize=auto;html=1;entryX=0.5;entryY=0;entryDx=0;entryDy=0;" edge="1" parent="ch4QMYqMHI65cW54n4_m-505" source="ch4QMYqMHI65cW54n4_m-519" target="ch4QMYqMHI65cW54n4_m-489">
          <mxGeometry relative="1" as="geometry" />
        </mxCell>
        <mxCell id="ch4QMYqMHI65cW54n4_m-519" value="StakeHolder viewÂ &#xa;summary laporan pemakaian aplikasi" style="" vertex="1" parent="ch4QMYqMHI65cW54n4_m-505">
          <mxGeometry x="78.5" y="589" width="281.5" height="50" as="geometry" />
        </mxCell>
        <mxCell id="ch4QMYqMHI65cW54n4_m-489" value="" style="ellipse;shape=endState;fillColor=#000000;strokeColor=#ff0000" vertex="1" parent="ch4QMYqMHI65cW54n4_m-505">
          <mxGeometry x="204.25" y="688" width="30" height="30" as="geometry" />
        </mxCell>
        <mxCell id="ch4QMYqMHI65cW54n4_m-517" style="edgeStyle=orthogonalEdgeStyle;rounded=0;orthogonalLoop=1;jettySize=auto;html=1;entryX=0;entryY=0.5;entryDx=0;entryDy=0;" edge="1" parent="1" source="ch4QMYqMHI65cW54n4_m-494" target="ch4QMYqMHI65cW54n4_m-504">
          <mxGeometry relative="1" as="geometry" />
        </mxCell>
        <mxCell id="ch4QMYqMHI65cW54n4_m-536" style="edgeStyle=orthogonalEdgeStyle;rounded=0;orthogonalLoop=1;jettySize=auto;html=1;" edge="1" parent="1" source="ch4QMYqMHI65cW54n4_m-491" target="ch4QMYqMHI65cW54n4_m-519">
          <mxGeometry relative="1" as="geometry" />
        </mxCell>
      </root>
    </mxGraphModel>
  </diagram>
</mxfile>
